<?xml version="1.0" encoding="UTF-8"?>
<svg id="Layer_1" data-name="Layer 1" xmlns="http://www.w3.org/2000/svg" xmlns:xlink="http://www.w3.org/1999/xlink" viewBox="0 0 70.08 42.72">
  <defs>
    <style>
      .cls-1 {
        fill: url(#linear-gradient-6);
        filter: url(#drop-shadow-4);
      }

      .cls-2 {
        fill: url(#linear-gradient-15);
        filter: url(#drop-shadow-13);
      }

      .cls-3 {
        fill: url(#linear-gradient-18);
        filter: url(#drop-shadow-16);
      }

      .cls-4 {
        fill: url(#linear-gradient-20);
        filter: url(#drop-shadow-18);
      }

      .cls-5 {
        fill: url(#linear-gradient-2);
      }

      .cls-6 {
        fill: url(#linear-gradient-19);
        filter: url(#drop-shadow-17);
      }

      .cls-7 {
        fill: url(#linear-gradient-17);
        filter: url(#drop-shadow-15);
      }

      .cls-8 {
        fill: url(#linear-gradient-23);
        filter: url(#drop-shadow-21);
      }

      .cls-9 {
        fill: url(#linear-gradient-21);
        filter: url(#drop-shadow-19);
      }

      .cls-10 {
        fill: url(#linear-gradient-10);
        filter: url(#drop-shadow-8);
      }

      .cls-11 {
        fill: url(#linear-gradient-14);
        filter: url(#drop-shadow-12);
      }

      .cls-12 {
        fill: url(#linear-gradient-8);
        filter: url(#drop-shadow-6);
      }

      .cls-13 {
        fill: url(#linear-gradient-28);
        filter: url(#drop-shadow-28);
      }

      .cls-14 {
        opacity: .79;
      }

      .cls-14, .cls-15, .cls-16, .cls-17 {
        fill: #d2c2f1;
      }

      .cls-18 {
        fill: url(#linear-gradient-12);
        filter: url(#drop-shadow-10);
      }

      .cls-15 {
        opacity: .14;
      }

      .cls-19 {
        fill: url(#linear-gradient-7);
        filter: url(#drop-shadow-5);
      }

      .cls-20 {
        fill: url(#linear-gradient-26);
        filter: url(#drop-shadow-26);
      }

      .cls-21 {
        fill: url(#linear-gradient-9);
        filter: url(#drop-shadow-7);
      }

      .cls-22 {
        fill: url(#linear-gradient-30);
        filter: url(#drop-shadow-30);
      }

      .cls-23 {
        fill: #e8dbcd;
      }

      .cls-16 {
        opacity: .52;
      }

      .cls-24 {
        fill: url(#linear-gradient-22);
        filter: url(#drop-shadow-20);
      }

      .cls-25 {
        fill: url(#linear-gradient-24);
        filter: url(#drop-shadow-24);
      }

      .cls-26 {
        fill: url(#linear-gradient-11);
        filter: url(#drop-shadow-9);
      }

      .cls-27 {
        filter: url(#drop-shadow-31);
      }

      .cls-27, .cls-28 {
        fill: #f7f5f6;
      }

      .cls-29 {
        fill: url(#linear-gradient-29);
        filter: url(#drop-shadow-29);
      }

      .cls-30 {
        fill: url(#linear-gradient-25);
        filter: url(#drop-shadow-25);
      }

      .cls-31 {
        filter: url(#drop-shadow-22);
        opacity: .37;
      }

      .cls-32 {
        fill: url(#linear-gradient-4);
        filter: url(#drop-shadow-2);
      }

      .cls-33 {
        fill: url(#linear-gradient-5);
        filter: url(#drop-shadow-3);
      }

      .cls-34 {
        fill: url(#linear-gradient-13);
        filter: url(#drop-shadow-11);
      }

      .cls-35 {
        fill: url(#linear-gradient-27);
        filter: url(#drop-shadow-27);
      }

      .cls-36 {
        fill: url(#linear-gradient-16);
        filter: url(#drop-shadow-14);
      }

      .cls-37 {
        opacity: .44;
      }

      .cls-28 {
        filter: url(#drop-shadow-23);
      }

      .cls-38 {
        fill: url(#linear-gradient);
      }

      .cls-39 {
        fill: url(#linear-gradient-3);
        filter: url(#drop-shadow-1);
      }
    </style>
    <linearGradient id="linear-gradient" x1="35.28" y1="34.12" x2="35.28" y2="8.44" gradientUnits="userSpaceOnUse">
      <stop offset="0" stop-color="#2471ab"/>
      <stop offset=".15" stop-color="#3368b2"/>
      <stop offset=".5" stop-color="#5256c0"/>
      <stop offset=".79" stop-color="#654bc8"/>
      <stop offset="1" stop-color="#6c48cc"/>
    </linearGradient>
    <linearGradient id="linear-gradient-2" x1="35.63" y1="34.11" x2="35.63" y2="8.43" xlink:href="#linear-gradient"/>
    <linearGradient id="linear-gradient-3" x1="20.92" y1="32.3" x2="20.92" y2="23.53" gradientUnits="userSpaceOnUse">
      <stop offset="0" stop-color="#553ca2"/>
      <stop offset=".23" stop-color="#4f3b9b"/>
      <stop offset=".55" stop-color="#3e3889"/>
      <stop offset=".92" stop-color="#23346c"/>
      <stop offset="1" stop-color="#1d3365"/>
    </linearGradient>
    <filter id="drop-shadow-1" x="6.72" y="16.8" width="24.24" height="24.72" filterUnits="userSpaceOnUse">
      <feOffset dx="0" dy="0"/>
      <feGaussianBlur result="blur" stdDeviation="2.33"/>
      <feFlood flood-color="#000" flood-opacity=".4"/>
      <feComposite in2="blur" operator="in"/>
      <feComposite in="SourceGraphic"/>
    </filter>
    <linearGradient id="linear-gradient-4" x1="20.51" y1="29.24" x2="20.51" y2="19.74" xlink:href="#linear-gradient-3"/>
    <filter id="drop-shadow-2" x="5.76" y="12.48" width="25.2" height="25.44" filterUnits="userSpaceOnUse">
      <feOffset dx="0" dy="0"/>
      <feGaussianBlur result="blur-2" stdDeviation="2.33"/>
      <feFlood flood-color="#000" flood-opacity=".4"/>
      <feComposite in2="blur-2" operator="in"/>
      <feComposite in="SourceGraphic"/>
    </filter>
    <linearGradient id="linear-gradient-5" x1="20.51" y1="24.61" x2="20.51" y2="15.81" xlink:href="#linear-gradient-3"/>
    <filter id="drop-shadow-3" x="6.24" y="7.92" width="24.24" height="24.48" filterUnits="userSpaceOnUse">
      <feOffset dx="0" dy="0"/>
      <feGaussianBlur result="blur-3" stdDeviation="2.33"/>
      <feFlood flood-color="#000" flood-opacity=".4"/>
      <feComposite in2="blur-3" operator="in"/>
      <feComposite in="SourceGraphic"/>
    </filter>
    <linearGradient id="linear-gradient-6" x1="16.97" y1="31.68" x2="16.97" y2="23.9" xlink:href="#linear-gradient-3"/>
    <filter id="drop-shadow-4" x="3.6" y="17.28" width="21.36" height="23.28" filterUnits="userSpaceOnUse">
      <feOffset dx="0" dy="0"/>
      <feGaussianBlur result="blur-4" stdDeviation="2.33"/>
      <feFlood flood-color="#000" flood-opacity=".4"/>
      <feComposite in2="blur-4" operator="in"/>
      <feComposite in="SourceGraphic"/>
    </filter>
    <linearGradient id="linear-gradient-7" x1="16.52" y1="30.04" x2="16.52" y2="20.78" xlink:href="#linear-gradient-3"/>
    <filter id="drop-shadow-5" x="2.64" y="13.68" width="22.32" height="25.2" filterUnits="userSpaceOnUse">
      <feOffset dx="0" dy="0"/>
      <feGaussianBlur result="blur-5" stdDeviation="2.33"/>
      <feFlood flood-color="#000" flood-opacity=".4"/>
      <feComposite in2="blur-5" operator="in"/>
      <feComposite in="SourceGraphic"/>
    </filter>
    <linearGradient id="linear-gradient-8" x1="31.11" y1="28.34" x2="31.11" y2="22.48" xlink:href="#linear-gradient-3"/>
    <filter id="drop-shadow-6" x="20.16" y="15.6" width="21.12" height="21.12" filterUnits="userSpaceOnUse">
      <feOffset dx="0" dy="0"/>
      <feGaussianBlur result="blur-6" stdDeviation="2.33"/>
      <feFlood flood-color="#000" flood-opacity=".4"/>
      <feComposite in2="blur-6" operator="in"/>
      <feComposite in="SourceGraphic"/>
    </filter>
    <linearGradient id="linear-gradient-9" x1="31.11" y1="26.07" x2="31.11" y2="20.21" xlink:href="#linear-gradient-3"/>
    <filter id="drop-shadow-7" x="20.16" y="12.96" width="21.12" height="21.12" filterUnits="userSpaceOnUse">
      <feOffset dx="0" dy="0"/>
      <feGaussianBlur result="blur-7" stdDeviation="2.33"/>
      <feFlood flood-color="#000" flood-opacity=".4"/>
      <feComposite in2="blur-7" operator="in"/>
      <feComposite in="SourceGraphic"/>
    </filter>
    <linearGradient id="linear-gradient-10" x1="31.11" y1="23.79" x2="31.11" y2="17.94" xlink:href="#linear-gradient-3"/>
    <filter id="drop-shadow-8" x="20.16" y="10.32" width="21.12" height="21.12" filterUnits="userSpaceOnUse">
      <feOffset dx="0" dy="0"/>
      <feGaussianBlur result="blur-8" stdDeviation="2.33"/>
      <feFlood flood-color="#000" flood-opacity=".4"/>
      <feComposite in2="blur-8" operator="in"/>
      <feComposite in="SourceGraphic"/>
    </filter>
    <linearGradient id="linear-gradient-11" x1="26.42" y1="32.32" x2="26.42" y2="24.95" xlink:href="#linear-gradient-3"/>
    <filter id="drop-shadow-9" x="13.2" y="18.48" width="24" height="23.04" filterUnits="userSpaceOnUse">
      <feOffset dx="0" dy="0"/>
      <feGaussianBlur result="blur-9" stdDeviation="2.33"/>
      <feFlood flood-color="#000" flood-opacity=".4"/>
      <feComposite in2="blur-9" operator="in"/>
      <feComposite in="SourceGraphic"/>
    </filter>
    <linearGradient id="linear-gradient-12" x1="26.47" y1="31.35" x2="26.47" y2="21.95" xlink:href="#linear-gradient-3"/>
    <filter id="drop-shadow-10" x="12.48" y="14.88" width="25.44" height="25.44" filterUnits="userSpaceOnUse">
      <feOffset dx="0" dy="0"/>
      <feGaussianBlur result="blur-10" stdDeviation="2.33"/>
      <feFlood flood-color="#000" flood-opacity=".4"/>
      <feComposite in2="blur-10" operator="in"/>
      <feComposite in="SourceGraphic"/>
    </filter>
    <linearGradient id="linear-gradient-13" x1="26.47" y1="27.23" x2="26.47" y2="19.04" xlink:href="#linear-gradient-3"/>
    <filter id="drop-shadow-11" x="13.2" y="11.52" width="24" height="24" filterUnits="userSpaceOnUse">
      <feOffset dx="0" dy="0"/>
      <feGaussianBlur result="blur-11" stdDeviation="2.33"/>
      <feFlood flood-color="#000" flood-opacity=".4"/>
      <feComposite in2="blur-11" operator="in"/>
      <feComposite in="SourceGraphic"/>
    </filter>
    <linearGradient id="linear-gradient-14" x1="35.52" y1="27.05" x2="35.52" y2="22.64" xlink:href="#linear-gradient-3"/>
    <filter id="drop-shadow-12" x="25.92" y="15.84" width="19.92" height="19.44" filterUnits="userSpaceOnUse">
      <feOffset dx="0" dy="0"/>
      <feGaussianBlur result="blur-12" stdDeviation="2.33"/>
      <feFlood flood-color="#000" flood-opacity=".4"/>
      <feComposite in2="blur-12" operator="in"/>
      <feComposite in="SourceGraphic"/>
    </filter>
    <linearGradient id="linear-gradient-15" x1="35.52" y1="25.78" x2="35.52" y2="21.78" xlink:href="#linear-gradient-3"/>
    <filter id="drop-shadow-13" x="26.4" y="14.88" width="18.96" height="18.96" filterUnits="userSpaceOnUse">
      <feOffset dx="0" dy="0"/>
      <feGaussianBlur result="blur-13" stdDeviation="2.33"/>
      <feFlood flood-color="#000" flood-opacity=".4"/>
      <feComposite in2="blur-13" operator="in"/>
      <feComposite in="SourceGraphic"/>
    </filter>
    <linearGradient id="linear-gradient-16" x1="35.52" y1="23.97" x2="35.52" y2="20.54" xlink:href="#linear-gradient-3"/>
    <filter id="drop-shadow-14" x="26.64" y="13.44" width="18.24" height="18.24" filterUnits="userSpaceOnUse">
      <feOffset dx="0" dy="0"/>
      <feGaussianBlur result="blur-14" stdDeviation="2.33"/>
      <feFlood flood-color="#000" flood-opacity=".4"/>
      <feComposite in2="blur-14" operator="in"/>
      <feComposite in="SourceGraphic"/>
    </filter>
    <linearGradient id="linear-gradient-17" x1="32.86" y1="32.32" x2="32.86" y2="23.88" xlink:href="#linear-gradient-3"/>
    <filter id="drop-shadow-15" x="20.16" y="17.28" width="24.96" height="24.24" filterUnits="userSpaceOnUse">
      <feOffset dx="0" dy="0"/>
      <feGaussianBlur result="blur-15" stdDeviation="2.33"/>
      <feFlood flood-color="#000" flood-opacity=".4"/>
      <feComposite in2="blur-15" operator="in"/>
      <feComposite in="SourceGraphic"/>
    </filter>
    <linearGradient id="linear-gradient-18" x1="32.86" y1="29.9" x2="32.86" y2="22.23" xlink:href="#linear-gradient-3"/>
    <filter id="drop-shadow-16" x="21.36" y="15.36" width="22.8" height="23.28" filterUnits="userSpaceOnUse">
      <feOffset dx="0" dy="0"/>
      <feGaussianBlur result="blur-16" stdDeviation="2.33"/>
      <feFlood flood-color="#000" flood-opacity=".4"/>
      <feComposite in2="blur-16" operator="in"/>
      <feComposite in="SourceGraphic"/>
    </filter>
    <linearGradient id="linear-gradient-19" x1="32.86" y1="26.42" x2="32.86" y2="19.86" xlink:href="#linear-gradient-3"/>
    <filter id="drop-shadow-17" x="21.84" y="12.48" width="21.84" height="22.08" filterUnits="userSpaceOnUse">
      <feOffset dx="0" dy="0"/>
      <feGaussianBlur result="blur-17" stdDeviation="2.33"/>
      <feFlood flood-color="#000" flood-opacity=".4"/>
      <feComposite in2="blur-17" operator="in"/>
      <feComposite in="SourceGraphic"/>
    </filter>
    <linearGradient id="linear-gradient-20" x1="37.81" y1="32.32" x2="37.81" y2="25.07" xlink:href="#linear-gradient-3"/>
    <filter id="drop-shadow-18" x="27.12" y="18.48" width="22.8" height="23.04" filterUnits="userSpaceOnUse">
      <feOffset dx="0" dy="0"/>
      <feGaussianBlur result="blur-18" stdDeviation="2.33"/>
      <feFlood flood-color="#000" flood-opacity=".4"/>
      <feComposite in2="blur-18" operator="in"/>
      <feComposite in="SourceGraphic"/>
    </filter>
    <linearGradient id="linear-gradient-21" x1="37.9" y1="32.32" x2="37.9" y2="22.8" xlink:href="#linear-gradient-3"/>
    <filter id="drop-shadow-19" x="24.72" y="15.84" width="27.6" height="25.68" filterUnits="userSpaceOnUse">
      <feOffset dx="0" dy="0"/>
      <feGaussianBlur result="blur-19" stdDeviation="2.33"/>
      <feFlood flood-color="#000" flood-opacity=".4"/>
      <feComposite in2="blur-19" operator="in"/>
      <feComposite in="SourceGraphic"/>
    </filter>
    <linearGradient id="linear-gradient-22" x1="37.9" y1="28.55" x2="37.9" y2="19.53" xlink:href="#linear-gradient-3"/>
    <filter id="drop-shadow-20" x="25.68" y="12.24" width="25.68" height="24.72" filterUnits="userSpaceOnUse">
      <feOffset dx="0" dy="0"/>
      <feGaussianBlur result="blur-20" stdDeviation="2.33"/>
      <feFlood flood-color="#000" flood-opacity=".4"/>
      <feComposite in2="blur-20" operator="in"/>
      <feComposite in="SourceGraphic"/>
    </filter>
    <linearGradient id="linear-gradient-23" x1="43.94" y1="32.32" x2="43.94" y2="25.92" xlink:href="#linear-gradient-3"/>
    <filter id="drop-shadow-21" x="35.04" y="19.68" width="21.36" height="21.84" filterUnits="userSpaceOnUse">
      <feOffset dx="0" dy="0"/>
      <feGaussianBlur result="blur-21" stdDeviation="2.33"/>
      <feFlood flood-color="#000" flood-opacity=".4"/>
      <feComposite in2="blur-21" operator="in"/>
      <feComposite in="SourceGraphic"/>
    </filter>
    <filter id="drop-shadow-22" x="1.44" y="1.44" width="67.44" height="40.08" filterUnits="userSpaceOnUse">
      <feOffset dx="0" dy="0"/>
      <feGaussianBlur result="blur-22" stdDeviation="2.33"/>
      <feFlood flood-color="#000" flood-opacity=".4"/>
      <feComposite in2="blur-22" operator="in"/>
      <feComposite in="SourceGraphic"/>
    </filter>
    <filter id="drop-shadow-23" x="12.48" y="26.88" width="14.64" height="14.4" filterUnits="userSpaceOnUse">
      <feOffset dx="0" dy="0"/>
      <feGaussianBlur result="blur-23" stdDeviation="2.33"/>
      <feFlood flood-color="#000" flood-opacity=".4"/>
      <feComposite in2="blur-23" operator="in"/>
      <feComposite in="SourceGraphic"/>
    </filter>
    <linearGradient id="linear-gradient-24" x1="44.03" y1="32.32" x2="44.03" y2="23.85" xlink:href="#linear-gradient-3"/>
    <filter id="drop-shadow-24" x="32.88" y="17.28" width="25.92" height="24.24" filterUnits="userSpaceOnUse">
      <feOffset dx="0" dy="0"/>
      <feGaussianBlur result="blur-24" stdDeviation="2.33"/>
      <feFlood flood-color="#000" flood-opacity=".4"/>
      <feComposite in2="blur-24" operator="in"/>
      <feComposite in="SourceGraphic"/>
    </filter>
    <linearGradient id="linear-gradient-25" x1="44.03" y1="29.11" x2="44.03" y2="20.87" xlink:href="#linear-gradient-3"/>
    <filter id="drop-shadow-25" x="33.6" y="13.68" width="24.24" height="24" filterUnits="userSpaceOnUse">
      <feOffset dx="0" dy="0"/>
      <feGaussianBlur result="blur-25" stdDeviation="2.33"/>
      <feFlood flood-color="#000" flood-opacity=".4"/>
      <feComposite in2="blur-25" operator="in"/>
      <feComposite in="SourceGraphic"/>
    </filter>
    <linearGradient id="linear-gradient-26" x1="50.54" y1="32.31" x2="50.54" y2="24.49" xlink:href="#linear-gradient-3"/>
    <filter id="drop-shadow-26" x="41.76" y="18" width="23.04" height="23.52" filterUnits="userSpaceOnUse">
      <feOffset dx="0" dy="0"/>
      <feGaussianBlur result="blur-26" stdDeviation="2.33"/>
      <feFlood flood-color="#000" flood-opacity=".4"/>
      <feComposite in2="blur-26" operator="in"/>
      <feComposite in="SourceGraphic"/>
    </filter>
    <linearGradient id="linear-gradient-27" x1="51.13" y1="31.31" x2="51.13" y2="22.58" xlink:href="#linear-gradient-3"/>
    <filter id="drop-shadow-27" x="42" y="15.6" width="24" height="24.72" filterUnits="userSpaceOnUse">
      <feOffset dx="0" dy="0"/>
      <feGaussianBlur result="blur-27" stdDeviation="2.33"/>
      <feFlood flood-color="#000" flood-opacity=".4"/>
      <feComposite in2="blur-27" operator="in"/>
      <feComposite in="SourceGraphic"/>
    </filter>
    <linearGradient id="linear-gradient-28" x1="52.17" y1="27.42" x2="52.17" y2="19.84" xlink:href="#linear-gradient-3"/>
    <filter id="drop-shadow-28" x="42.96" y="12.48" width="24.48" height="23.28" filterUnits="userSpaceOnUse">
      <feOffset dx="0" dy="0"/>
      <feGaussianBlur result="blur-28" stdDeviation="2.33"/>
      <feFlood flood-color="#000" flood-opacity=".4"/>
      <feComposite in2="blur-28" operator="in"/>
      <feComposite in="SourceGraphic"/>
    </filter>
    <linearGradient id="linear-gradient-29" x1="55.31" y1="28.03" x2="55.31" y2="21" xlink:href="#linear-gradient-3"/>
    <filter id="drop-shadow-29" x="48.96" y="13.92" width="19.92" height="22.56" filterUnits="userSpaceOnUse">
      <feOffset dx="0" dy="0"/>
      <feGaussianBlur result="blur-29" stdDeviation="2.33"/>
      <feFlood flood-color="#000" flood-opacity=".4"/>
      <feComposite in2="blur-29" operator="in"/>
      <feComposite in="SourceGraphic"/>
    </filter>
    <linearGradient id="linear-gradient-30" x1="55.74" y1="23.76" x2="55.74" y2="18.21" xlink:href="#linear-gradient-3"/>
    <filter id="drop-shadow-30" x="49.92" y="10.56" width="18.96" height="20.88" filterUnits="userSpaceOnUse">
      <feOffset dx="0" dy="0"/>
      <feGaussianBlur result="blur-30" stdDeviation="2.33"/>
      <feFlood flood-color="#000" flood-opacity=".4"/>
      <feComposite in2="blur-30" operator="in"/>
      <feComposite in="SourceGraphic"/>
    </filter>
    <filter id="drop-shadow-31" x="0" y="0" width="70.08" height="42.72" filterUnits="userSpaceOnUse">
      <feOffset dx="0" dy="0"/>
      <feGaussianBlur result="blur-31" stdDeviation="2.33"/>
      <feFlood flood-color="#000" flood-opacity=".4"/>
      <feComposite in2="blur-31" operator="in"/>
      <feComposite in="SourceGraphic"/>
    </filter>
  </defs>
  <path class="cls-38" d="M62.02,21.25v.06c0,.18,0,.36-.01.54l-.29.53c-.12,1.38-.47,2.71-1,3.93,0,0,0,.02-.01.03-.07.16-.14.31-.21.46-.36.74-.79,1.44-1.28,2.1-.36.49-.76.95-1.19,1.37-1.09,1.1-2.39,2.01-3.82,2.67-1.3.6-2.72.99-4.21,1.12-.18.02-.37.03-.56.04-.06,0-.11,0-.17,0-.07,0-.14,0-.2,0-.09,0-.18,0-.27,0h-27.27c-.12,0-.24,0-.36,0-.07,0-.13,0-.2,0-.05,0-.11,0-.16,0-.01,0-.03,0-.04,0-.08,0-.15,0-.23-.02,0,0-.01,0-.02,0-.06,0-.12,0-.18-.01,0,0-.01,0-.02,0-.16-.01-.31-.03-.46-.05-.03,0-.05,0-.08,0-.01,0-.03,0-.04,0-.04,0-.08-.01-.12-.02l-.19-.03c-.08-.01-.16-.03-.23-.04-.01,0-.03,0-.05,0-.01,0-.02,0-.04,0-.05,0-.1-.02-.16-.03,0,0,0,0-.01,0,0,0-.01,0-.02,0-.02,0-.03,0-.05-.01,0,0-.01,0-.02,0-.06-.01-.11-.02-.17-.04-.02,0-.03,0-.05-.01-.02,0-.04,0-.06-.01-.09-.02-.19-.04-.28-.07,0,0,0,0,0,0-1.11-.28-2.16-.71-3.13-1.25-.65-.37-1.27-.79-1.84-1.26-.19-.16-.38-.32-.56-.49-.12-.11-.24-.22-.36-.34-.06-.06-.12-.12-.17-.17-.06-.06-.11-.12-.17-.18-.06-.06-.12-.12-.17-.19-.05-.06-.11-.12-.16-.18-.05-.06-.11-.12-.16-.19-.06-.07-.11-.13-.16-.2-.05-.06-.1-.12-.14-.18-.14-.19-.28-.38-.42-.57-.05-.07-.1-.14-.15-.22-.04-.06-.08-.12-.12-.19-.1-.16-.2-.32-.29-.48-.04-.07-.09-.15-.13-.23-.13-.24-.26-.48-.37-.73-.03-.07-.06-.14-.09-.21-.04-.08-.07-.16-.1-.24-.03-.08-.07-.16-.1-.24-.03-.07-.05-.13-.08-.2-.1-.26-.19-.53-.27-.8-.05-.17-.1-.34-.14-.51-.02-.09-.04-.17-.06-.26-.03-.13-.06-.26-.08-.39-.03-.13-.05-.27-.08-.4-.09-.5-.14-1.02-.16-1.54,0-.08,0-.16,0-.24,0-.12,0-.24,0-.36,0-.11,0-.22,0-.33,0-.21.02-.42.03-.63,0-.1.02-.2.03-.3.59-6.07,5.51-10.93,11.64-11.52,0,0,0,0,0,0,.2-.02.4-.03.61-.04.11,0,.21,0,.32-.01.11,0,.22,0,.33,0h27.55c7.12,0,12.94,5.76,12.94,12.81Z"/>
  <path class="cls-5" d="M62.36,21.24v.06c0,.18,0,.36-.01.54l-.29.53c-.12,1.38-.47,2.71-1,3.93,0,0,0,.02-.01.03-.07.16-.14.31-.21.46-.36.74-.79,1.44-1.28,2.1-.36.49-.76.95-1.19,1.37-1.09,1.1-2.39,2.01-3.82,2.67-1.3.6-2.72.99-4.21,1.12-.18.02-.37.03-.56.04-.06,0-.11,0-.17,0-.07,0-.14,0-.2,0-.09,0-.18,0-.27,0h-27.27c-.12,0-.24,0-.36,0-.07,0-.13,0-.2,0-.05,0-.11,0-.16,0-.01,0-.03,0-.04,0-.08,0-.15,0-.23-.02,0,0-.01,0-.02,0-.06,0-.12,0-.18-.01,0,0-.01,0-.02,0-.16-.01-.31-.03-.46-.05-.03,0-.05,0-.08,0-.01,0-.03,0-.04,0-.04,0-.08-.01-.12-.02l-.19-.03c-.08-.01-.16-.03-.23-.04-.01,0-.03,0-.05,0-.01,0-.02,0-.04,0-.05,0-.1-.02-.16-.03,0,0,0,0-.01,0,0,0-.01,0-.02,0-.02,0-.03,0-.05-.01,0,0-.01,0-.02,0-.06-.01-.11-.02-.17-.04-.02,0-.03,0-.05-.01-.02,0-.04,0-.06-.01-.09-.02-.19-.04-.28-.07,0,0,0,0,0,0-1.11-.28-2.16-.71-3.13-1.25-.65-.37-1.27-.79-1.84-1.26-.19-.16-.38-.32-.56-.49-.12-.11-.24-.22-.36-.34-.06-.06-.12-.12-.17-.17-.06-.06-.11-.12-.17-.18-.06-.06-.12-.12-.17-.19-.05-.06-.11-.12-.16-.18-.05-.06-.11-.12-.16-.19-.06-.07-.11-.13-.16-.2-.05-.06-.1-.12-.14-.18-.14-.19-.28-.38-.42-.57-.05-.07-.1-.14-.15-.22-.04-.06-.08-.12-.12-.19-.1-.16-.2-.32-.29-.48-.04-.07-.09-.15-.13-.23-.13-.24-.26-.48-.37-.73-.03-.07-.06-.14-.09-.21-.04-.08-.07-.16-.1-.24-.03-.08-.07-.16-.1-.24-.03-.07-.05-.13-.08-.2-.1-.26-.19-.53-.27-.8-.05-.17-.1-.34-.14-.51-.02-.09-.04-.17-.06-.26-.03-.13-.06-.26-.08-.39-.03-.13-.05-.27-.08-.4-.09-.5-.14-1.02-.16-1.54,0-.08,0-.16,0-.24,0-.12,0-.24,0-.36,0-.11,0-.22,0-.33,0-.21.02-.42.03-.63,0-.1.02-.2.03-.3.59-6.07,5.51-10.93,11.64-11.52,0,0,0,0,0,0,.2-.02.4-.03.61-.04.11,0,.21,0,.32-.01.11,0,.22,0,.33,0h27.55c7.12,0,12.94,5.76,12.94,12.81Z"/>
  <path class="cls-39" d="M23.58,32.53s-.09.08-.13.12c-.96.83-2.59,1.32-2.59,1.32-.06.04-.12.09-.18.12,0,0,0,0,0,0-.01,0-.03,0-.04,0-.08,0-.15,0-.23-.02,0,0-.01,0-.02,0-.06,0-.12,0-.18-.01,0,0-.01,0-.02,0-.09,0-.18-.02-.27-.03,0,0,0,0-.01,0-.09,0-.17-.02-.26-.03,0,0-.01,0-.02,0-.04,0-.08-.01-.12-.02-.01,0-.03,0-.04,0-.06,0-.11-.02-.17-.03,0,0-.01,0-.02,0-.07-.01-.14-.02-.22-.04-.01,0-.03,0-.05,0-.01,0-.02,0-.04,0-.05,0-.1-.02-.16-.03,0,0,0,0-.01,0,0,0-.01,0-.02,0-.02,0-.03,0-.05-.01,0,0-.01,0-.02,0-.06-.01-.11-.02-.17-.04-.02,0-.03,0-.05-.01-.02,0-.04,0-.06-.01-.09-.02-.19-.04-.28-.07,0,0,0,0,0,0-.09-.02-.18-.05-.27-.07-.09-.03-.18-.05-.27-.08-.07-.02-.15-.05-.22-.07-.11-.03-.21-.07-.32-.11-.14-.05-.28-.11-.42-.16-.07-.03-.14-.06-.21-.09s-.14-.06-.21-.09c-.06-.02-.11-.05-.17-.08-.08-.04-.16-.07-.24-.11-.07-.03-.13-.06-.2-.1-.4-.2-.79-.43-1.17-.67-.06-.04-.13-.08-.19-.12l-.18-.13c-.06-.04-.12-.09-.18-.13.32-.28.62-.57.89-.88.08-.09.16-.18.24-.27.25-.3.48-.6.7-.91.27-.39.52-.79.73-1.19.62-1.12,1.03-2.21,1.29-3.04.03-.09.05-.18.08-.26.22-.76.31-1.24.31-1.24.09.43.2.84.31,1.24.03.09.05.18.08.26.56,1.78,1.35,3.19,2.15,4.27.01.01.02.03.03.04.62.84,1.24,1.48,1.74,1.94.66.6,1.12.88,1.12.88Z"/>
  <path class="cls-32" d="M18.15,19.49s-1.03,5.76-5.18,8.5c0,0,.19,1.44,2.68,1.57,0,0,2.08,2.21,5.2,0,0,0,1.8-.54,2.72-1.44,0,0-4.13-2.52-5.43-8.63Z"/>
  <path class="cls-33" d="M18.16,14.92s-.96,5.33-4.8,7.88c0,0,.17,1.34,2.49,1.45,0,0,1.93,2.05,4.82,0,0,0,1.66-.5,2.52-1.34,0,0-3.82-2.33-5.03-7.99Z"/>
  <path class="cls-37" d="M61.47,21.25v.06c0,.18,0,.36-.01.54l-.28.53h0c-.13-6.59-5.32-13.37-13.23-13.26h-26.12c-8.58-.39-12.97,7.74-13.1,14.32v-.02c-.09-.5-.15-1.02-.17-1.54,0-.08,0-.16,0-.24,0-.12,0-.24,0-.36,0-.11,0-.22,0-.33,0-.21.02-.42.03-.63,0-.1.02-.2.03-.3.58-6.07,5.45-10.93,11.52-11.52,0,0,0,0,0,0,.2-.02.4-.03.6-.04.11,0,.21,0,.32-.01.11,0,.22,0,.33,0h27.28c7.05,0,12.81,5.76,12.81,12.81Z"/>
  <circle class="cls-23" cx="47.64" cy="21.28" r="11.91"/>
  <path class="cls-1" d="M17.59,32.96c-.15.15-.32.28-.51.41-1.26-.45-2.44-1.1-3.48-1.9-1.12-.86-2.09-1.89-2.87-3.06,1.09-2.15,1.44-4.07,1.44-4.07.61,2.87,1.85,4.95,2.98,6.35,1.28,1.57,2.44,2.28,2.44,2.28Z"/>
  <path class="cls-19" d="M17.59,29.33c-.7.69-1.9,1.16-2.44,1.35-.17.06-.28.09-.28.09-.44.32-.87.54-1.27.69-1.12-.86-2.09-1.89-2.87-3.06-.4-.6-.75-1.22-1.05-1.88,1.93-2.73,2.49-5.83,2.49-5.83,1.3,6.11,5.43,8.63,5.43,8.63Z"/>
  <path class="cls-12" d="M30.52,22.68s-.64,3.55-3.19,5.24c0,0,.11.89,1.65.97,0,0,1.28,1.36,3.21,0,0,0,1.11-.33,1.68-.89,0,0-2.54-1.55-3.35-5.32Z"/>
  <path class="cls-21" d="M30.52,20.03s-.64,3.55-3.19,5.24c0,0,.11.89,1.65.97,0,0,1.28,1.36,3.21,0,0,0,1.11-.33,1.68-.89,0,0-2.54-1.55-3.35-5.32Z"/>
  <path class="cls-10" d="M30.52,17.39s-.64,3.55-3.19,5.24c0,0,.11.89,1.65.97,0,0,1.28,1.36,3.21,0,0,0,1.11-.33,1.68-.89,0,0-2.54-1.55-3.35-5.32Z"/>
  <path class="cls-26" d="M29.88,34.12h-8.49c-.12,0-.24,0-.36,0-.09,0-.18,0-.27-.01-.03,0-.05,0-.08,0-.01,0-.03,0-.04,0-.08,0-.15,0-.23-.02.7-.64,1.3-1.35,1.82-2.07.08-.12.17-.24.24-.36.83-1.23,1.41-2.49,1.81-3.54.57-1.49.77-2.56.77-2.56.21.93.47,1.78.78,2.57.61,1.56,1.37,2.84,2.15,3.88.05.07.11.14.16.21.61.79,1.22,1.43,1.75,1.92Z"/>
  <path class="cls-18" d="M25.07,22.06s-1.07,5.7-5.38,8.42c0,0,.19,1.43,2.79,1.55,0,0,2.16,2.19,5.4,0,0,0,1.86-.53,2.83-1.43,0,0-4.29-2.49-5.64-8.54Z"/>
  <path class="cls-34" d="M25.09,18.68s-.93,4.96-4.68,7.32c0,0,.17,1.24,2.42,1.35,0,0,1.88,1.9,4.7,0,0,0,1.62-.46,2.46-1.24,0,0-3.73-2.17-4.9-7.43Z"/>
  <g>
    <path class="cls-11" d="M38.49,27.37c-.29.28-.73.49-1.05.62h-3.8c-.63-.23-.68-.68-.68-.68,2.16-1.43,2.7-4.44,2.7-4.44.68,3.19,2.83,4.5,2.83,4.5Z"/>
    <path class="cls-2" d="M35.67,21.86s-.43,2.42-2.18,3.58c0,0,.08.61,1.13.66,0,0,.88.93,2.19,0,0,0,.76-.23,1.15-.61,0,0-1.74-1.06-2.28-3.63Z"/>
    <path class="cls-36" d="M35.68,20.42s-.37,2.07-1.87,3.06c0,0,.07.52.97.56,0,0,.75.8,1.87,0,0,0,.65-.19.98-.52,0,0-1.49-.91-1.95-3.11Z"/>
  </g>
  <path class="cls-7" d="M37.94,32.93c-.55.54-1.4.94-2.01,1.19h-7.29c-1.2-.45-1.31-1.31-1.31-1.31.28-.19.56-.39.81-.61.17-.14.33-.28.48-.43.44-.42.84-.88,1.19-1.35.07-.1.15-.2.22-.3.15-.21.29-.42.42-.64.51-.82.9-1.65,1.2-2.39.1-.23.18-.46.26-.68h0c.04-.1.07-.2.1-.29.36-1.08.5-1.82.5-1.82.12.58.27,1.12.44,1.64.12.38.26.73.4,1.08,0,0,0,0,0,0,0,.03.02.06.04.09.11.28.24.54.36.8.01.02.02.05.03.07l.03.06c.07.15.15.29.22.43.29.53.6,1.02.9,1.45.1.14.2.28.3.41.29.38.57.71.85,1,1.03,1.1,1.85,1.61,1.85,1.61Z"/>
  <path class="cls-3" d="M32.53,22.39s-.83,4.65-4.18,6.86c0,0,.15,1.17,2.16,1.27,0,0,1.68,1.78,4.2,0,0,0,1.45-.43,2.2-1.17,0,0-3.33-2.03-4.38-6.96Z"/>
  <path class="cls-6" d="M32.54,19.63s-.71,3.97-3.58,5.87c0,0,.13,1,1.85,1.08,0,0,1.44,1.52,3.59,0,0,0,1.24-.37,1.88-1,0,0-2.85-1.74-3.75-5.95Z"/>
  <path class="cls-4" d="M42.62,34.12h-8.47s.02-.02.02-.03c.76-.91,1.39-1.85,1.91-2.77.36-.62.66-1.24.92-1.81.26-.59.48-1.13.65-1.62,0-.03.02-.05.03-.07.11-.32.21-.61.29-.87.24-.79.34-1.27.34-1.27.34,1.42.8,2.71,1.34,3.86.16.35.33.68.5,1,.29.53.59,1.03.9,1.5.41.63.84,1.19,1.26,1.71.06.07.12.15.18.22.05.05.09.11.14.16Z"/>
  <path class="cls-9" d="M45.05,32.62c-.09.08-.19.16-.29.23-.69.5-1.62.89-2.28,1.12-.18.06-.33.11-.46.15,0,0,0,0-.01,0h-7.69c-.05,0-.1-.02-.15-.03-2.06-.41-2.24-1.62-2.24-1.62.74-.44,1.41-.95,2-1.51.36-.34.69-.69,1-1.05.3-.35.58-.71.83-1.08.06-.09.12-.18.18-.26.13-.2.26-.4.38-.59.27-.44.5-.87.71-1.29.08-.16.16-.33.23-.48.05-.12.11-.24.16-.35.09-.21.17-.41.24-.6.51-1.3.69-2.22.69-2.22.58,2.46,1.63,4.39,2.72,5.86.48.64.96,1.19,1.42,1.66.41.41.8.76,1.14,1.05.84.69,1.42,1.01,1.42,1.01Z"/>
  <path class="cls-24" d="M38.36,19.25s-1.09,5.46-5.48,8.07c0,0,.2,1.37,2.84,1.49,0,0,2.2,2.1,5.5,0,0,0,1.9-.51,2.88-1.37,0,0-4.36-2.39-5.74-8.19Z"/>
  <path class="cls-8" d="M49.02,34.11c-.05,0-.11,0-.16,0-.07,0-.13,0-.2,0-.09,0-.18,0-.27,0h-6.36s0,0,0,0c.1-.12.19-.25.28-.37.34-.46.64-.93.91-1.4.15-.25.28-.49.41-.74.26-.49.49-.97.68-1.43.86-1.98,1.15-3.5,1.15-3.5.3,1.3.7,2.48,1.17,3.52.51,1.13,1.09,2.12,1.69,2.97.21.3.43.59.64.86.02.02.04.05.05.07Z"/>
  <path class="cls-31" d="M20.75,34.1s-.05,0-.08,0c-.01,0-.03,0-.04,0,.01,0,.03,0,.04,0,.05,0,.11,0,.16,0-.02,0-.05,0-.08,0ZM48.67,8.44h-.28c7.06,0,12.84,5.78,12.84,12.84,0,.37-.02.73-.05,1.09h0s.28-.52.28-.52c0-.18.01-.36.01-.54v-.06c0-7.05-5.76-12.81-12.81-12.81ZM17.62,33.55c-.07-.02-.15-.05-.22-.07-.11-.03-.21-.07-.32-.11-.14-.05-.28-.11-.42-.16-.07-.03-.14-.06-.21-.09s-.14-.06-.21-.09c-.06-.02-.11-.05-.17-.08-.08-.04-.16-.07-.24-.11-.07-.03-.13-.06-.2-.1-.4-.2-.79-.43-1.17-.67-.06-.04-.13-.08-.19-.12l-.18-.13c-.06-.04-.12-.09-.18-.13-.11-.08-.21-.15-.31-.23-1.12-.86-2.09-1.89-2.87-3.06-.4-.6-.75-1.22-1.05-1.88-.44-.97-.76-2.01-.94-3.09-.09-.51-.14-1.03-.17-1.56.02.52.08,1.03.16,1.54.02.13.05.27.07.4.03.13.05.26.08.39.02.09.04.17.06.26.04.17.09.34.14.51.08.27.17.54.27.8.02.07.05.13.08.2.03.08.06.16.1.24.03.08.07.16.1.24.03.07.06.14.09.21.11.25.24.49.37.73.04.08.08.15.13.23.09.16.19.32.29.48.04.06.08.12.12.19.05.07.1.15.15.22.13.19.27.38.41.57.05.06.09.12.14.18.05.07.11.14.16.2.05.06.11.13.16.19.05.06.11.12.16.18.05.06.11.12.17.19.05.06.11.12.17.18.06.06.11.12.17.17.12.11.23.23.35.34.18.17.37.33.56.49.57.47,1.18.89,1.83,1.26.96.54,2,.97,3.1,1.25-.09-.02-.18-.05-.27-.07-.09-.03-.18-.05-.27-.08ZM8.61,20.02c.3-3.03,1.66-5.76,3.71-7.81,2.05-2.05,4.78-3.41,7.81-3.71-6.07.58-10.94,5.45-11.52,11.52Z"/>
  <path class="cls-28" d="M19.65,34c.08.01.17.02.26.03-.06,0-.12-.01-.18-.02-.03,0-.05,0-.08,0ZM19.51,33.98s.08.01.12.02c0,0-.02,0-.03,0-.03,0-.07,0-.1-.01Z"/>
  <path class="cls-25" d="M51.38,33.01c-.49.45-1.2.81-1.81,1.06-.18.02-.37.03-.55.04-.05,0-.11,0-.16,0-.07,0-.13,0-.2,0-.09,0-.18,0-.27,0h-7.32c-1.09-.47-1.19-1.24-1.19-1.24.42-.26.81-.54,1.17-.85.19-.16.37-.32.55-.49.33-.31.63-.64.9-.98.27-.33.52-.66.74-1,1.74-2.6,2.26-5.29,2.26-5.29.51,2.25,1.43,4.01,2.39,5.35,1.06,1.48,2.17,2.44,2.85,2.94.08.06.16.11.22.16.27.19.43.28.43.28Z"/>
  <path class="cls-30" d="M45.51,20.8s-.96,4.99-4.81,7.37c0,0,.17,1.25,2.49,1.36,0,0,1.93,1.91,4.83,0,0,0,1.67-.46,2.53-1.25,0,0-3.83-2.18-5.04-7.48Z"/>
  <path class="cls-20" d="M57.53,30.27c-1.08,1.1-2.36,2.01-3.78,2.67-1.29.6-2.7.99-4.17,1.12-.18.02-.37.03-.55.04-.05,0-.11,0-.16,0,.56-.38,1.08-.8,1.55-1.24.28-.25.54-.52.78-.78,1.19-1.28,2.04-2.66,2.63-3.85.91-1.82,1.22-3.23,1.22-3.23.32,1.2.75,2.28,1.25,3.25.13.26.27.51.42.75.26.45.54.87.82,1.26Z"/>
  <path class="cls-35" d="M58.66,28.74c-.36.49-.71,1.11-1.14,1.54-1.08,1.1-2.11,2.02-3.53,2.67-.76-.21-1.53-.55-1.72-.69-.05-.04-.08-.06-.08-.06-.38-.01-.71-.05-1.01-.11-1.93-.34-2.09-1.36-2.09-1.36,1.53-.82,2.69-1.93,3.57-3.06,1.85-2.39,2.4-4.88,2.4-4.88.54,2.07,1.52,3.7,2.54,4.93,0,.01.02.02.03.03.35.43.67.64,1.02.98Z"/>
  <path class="cls-13" d="M58.88,25.25c.56.5,1.04.86,1.32,1.06,0,0,0,.02-.01.03-.07.16-.14.31-.21.46-.94.53-2.21.84-2.21.84-.02.01-.05.03-.07.04-.03.02-.05.03-.08.04-.47.25-.91.43-1.32.54-1.01.27-1.85.17-2.47-.02-.63-.19-1.03-.48-1.15-.57-.03-.02-.04-.03-.04-.03-2.46-.1-2.65-1.25-2.65-1.25,4.09-2.19,5.11-6.79,5.11-6.79.65,2.47,2.45,4.46,3.78,5.65Z"/>
  <path class="cls-29" d="M61.47,21.25v.06c0,.18,0,.36-.01.54-.03.79-.14,1.56-.31,2.31-.08.36-.18.71-.29,1.06-.63,1.26-1.45,2.62-2.5,3.91-2.17-.44-2.35-1.73-2.35-1.73,1.73-1.05,3.04-2.46,4.03-3.9.59-.87,1.07-1.74,1.44-2.55,0,.1,0,.2,0,.3Z"/>
  <path class="cls-22" d="M61.47,21.25v.06c0,.18,0,.36-.01.54-.03.79-.14,1.56-.31,2.31-.61-.24-1-.55-1.12-.66-.03-.03-.04-.04-.04-.04-2.78-.13-2.99-1.6-2.99-1.6,1.81-1.09,3.09-2.66,3.97-4.16.3,1.04.48,2.13.5,3.25,0,.1,0,.2,0,.3Z"/>
  <circle class="cls-17" cx="15.01" cy="14.04" r=".33"/>
  <circle class="cls-17" cx="20.74" cy="11.05" r=".33"/>
  <circle class="cls-17" cx="27.07" cy="17.12" r=".33"/>
  <circle class="cls-17" cx="31.01" cy="10.6" r=".33"/>
  <circle class="cls-17" cx="36.91" cy="11.38" r=".33"/>
  <circle class="cls-17" cx="33.92" cy="17.12" r=".33"/>
  <circle class="cls-14" cx="32.4" cy="14.29" r=".25"/>
  <circle class="cls-14" cx="28.56" cy="13.71" r=".25"/>
  <circle class="cls-14" cx="36.06" cy="13.96" r=".25"/>
  <circle class="cls-14" cx="25.76" cy="10.76" r=".25"/>
  <circle class="cls-14" cx="11.7" cy="18.43" r=".25"/>
  <circle class="cls-16" cx="15.43" cy="16.93" r=".19"/>
  <circle class="cls-16" cx="24.68" cy="16.34" r=".19"/>
  <circle class="cls-16" cx="20.65" cy="14.33" r=".19"/>
  <circle class="cls-15" cx="17.67" cy="11.78" r=".19"/>
  <circle class="cls-15" cx="59.56" cy="23.81" r=".19"/>
  <circle class="cls-15" cx="9.85" cy="24.4" r=".19"/>
  <circle class="cls-15" cx="42.22" cy="9.56" r=".19"/>
  <circle class="cls-15" cx="34.26" cy="20.88" r=".19"/>
  <circle class="cls-16" cx="21.26" cy="24.82" r=".19"/>
  <circle class="cls-16" cx="33.92" cy="10.76" r=".19"/>
  <circle class="cls-14" cx="21.97" cy="18.28" r=".25"/>
  <path class="cls-27" d="M62.77,20.38c-.04-.71-.14-1.41-.29-2.09-.16-.76-.39-1.5-.68-2.22-.72-1.8-1.8-3.42-3.15-4.76-2.56-2.56-6.08-4.14-9.96-4.14h-27.61c-7.76,0-14.11,6.35-14.11,14.11,0,2.36.59,4.59,1.63,6.55.37.71.8,1.38,1.29,2.01.38.49.79.96,1.23,1.4.16.16.33.32.49.47.51.46,1.06.89,1.63,1.28.45.31.93.59,1.42.84.25.13.51.25.77.37,1.1.48,2.27.83,3.5,1.02.7.11,1.42.16,2.14.16h27.61c.47,0,.94-.02,1.4-.07,1.79-.18,3.48-.69,5.01-1.48.58-.3,1.13-.63,1.66-1,.6-.42,1.17-.89,1.69-1.39.5-.48.97-1,1.4-1.56.06-.07.11-.15.17-.22,1.14-1.53,1.97-3.3,2.42-5.21.24-1.02.36-2.08.36-3.17,0-.3,0-.6-.03-.9ZM21.39,34.12c-.12,0-.24,0-.36,0-.07,0-.13,0-.2,0-.05,0-.11,0-.16,0-.01,0-.03,0-.04,0-.08,0-.15,0-.23-.02,0,0-.01,0-.02,0-.06,0-.12,0-.18-.01,0,0-.01,0-.02,0-.09,0-.18-.02-.27-.03,0,0,0,0-.01,0-.09,0-.17-.02-.26-.03,0,0-.01,0-.02,0-.04,0-.08-.01-.12-.02-.01,0-.03,0-.04,0-.06,0-.12-.02-.19-.03-.15-.02-.3-.05-.45-.08-.01,0-.02,0-.03,0-.16-.03-.33-.07-.49-.11-1.01-.25-1.98-.62-2.88-1.09-.12-.06-.24-.13-.37-.2-.16-.09-.32-.19-.48-.28-.31-.2-.62-.41-.91-.63-.15-.11-.29-.22-.43-.34-.19-.16-.38-.32-.56-.49-.12-.11-.24-.22-.35-.34-.06-.06-.12-.11-.17-.17-.06-.06-.11-.12-.17-.18-.06-.06-.11-.12-.17-.19-.05-.06-.11-.12-.16-.18-.05-.06-.11-.12-.16-.19-.06-.07-.11-.13-.16-.2-.05-.06-.1-.12-.14-.18-.14-.19-.28-.38-.41-.57-.05-.07-.1-.14-.15-.22-.04-.06-.08-.12-.12-.19-.1-.16-.2-.32-.29-.48-.04-.08-.09-.15-.13-.23-.13-.24-.25-.48-.37-.73-.03-.07-.06-.14-.09-.21-.04-.08-.07-.16-.1-.24-.04-.08-.07-.16-.1-.24-.03-.07-.05-.13-.08-.2-.1-.26-.19-.53-.27-.8-.05-.17-.1-.34-.14-.51-.02-.09-.04-.17-.06-.26-.03-.13-.06-.26-.08-.39-.03-.13-.05-.27-.07-.4-.04-.25-.08-.51-.11-.76-.03-.26-.05-.52-.06-.78,0-.08,0-.16,0-.24,0-.12,0-.24,0-.36,0-.11,0-.22,0-.33,0-.21.02-.42.03-.63,0-.1.02-.2.03-.3,0-.1.02-.19.03-.28.69-5.84,5.37-10.51,11.21-11.2.09-.01.19-.02.28-.03,0,0,0,0,0,0,.2-.02.4-.03.6-.04.11,0,.21,0,.32-.01.05,0,.1,0,.15,0,0,0,.02,0,.02,0,.05,0,.1,0,.16,0h27.28c.12,0,.24,0,.36,0,.08,0,.15,0,.23,0,.06,0,.13,0,.19,0,.02,0,.05,0,.07,0,.06,0,.12,0,.18.01.05,0,.1,0,.15.01.05,0,.11,0,.16.02.12.01.24.03.35.04.08.01.16.02.25.04.07.01.15.02.22.04.07.01.14.02.21.04.27.05.53.11.79.18.08.02.17.04.25.07.05.01.09.02.13.04.08.02.17.05.25.07,0,0,0,0,.01,0,.07.02.14.04.21.07.25.08.49.17.74.27.06.03.13.05.19.08.03.01.05.02.08.03.08.03.16.07.24.11.07.03.14.06.2.09.04.02.08.04.12.06.08.04.16.08.24.12.09.05.18.09.27.14.06.03.12.06.17.1.07.04.14.08.21.12,0,0,.02.01.03.02.07.04.14.08.2.12.22.13.43.27.64.42.07.05.14.1.21.15.06.04.12.09.17.13.72.55,1.38,1.17,1.98,1.86.04.05.09.1.13.16.2.24.39.48.57.73.04.05.07.1.11.16.07.1.14.2.21.3.08.12.16.24.23.37,0,0,0,.02.02.03.08.13.16.26.23.39.05.09.1.18.15.28.04.07.08.15.12.23.04.08.08.15.11.23.04.08.07.15.11.23.07.16.14.31.2.47.03.07.05.13.08.2,0,.03.02.05.03.08.02.07.05.13.07.2.06.16.11.33.16.49h0c.03.08.05.17.07.25.04.13.07.26.11.39.03.13.06.25.09.38,0,.01,0,.02,0,.04.03.12.05.24.07.36,0,.01,0,.02,0,.03.02.12.04.24.06.37,0,.01,0,.03,0,.04.01.1.03.19.04.29,0,.06.01.11.02.17.01.1.02.2.03.29,0,.04,0,.08.01.12,0,.05,0,.1.01.15.01.14.02.28.02.42,0,.07,0,.14,0,.21,0,.1,0,.2,0,.3v.06c0,.18,0,.36-.01.54-.03.79-.14,1.56-.31,2.31-.08.36-.18.71-.29,1.06-.63,1.26-1.45,2.62-2.5,3.91-1.08,1.31-2.4,2.54-4.01,3.52,0,0,0,.04.03.12-1.56.79-3.31,1.26-5.15,1.34-.19,0-.37.01-.56.01h-27.28Z"/>
</svg>