<?xml version="1.0" encoding="UTF-8"?>
<svg id="Layer_1" data-name="Layer 1" xmlns="http://www.w3.org/2000/svg" viewBox="0 0 55.89 27.03">
  <defs>
    <style>
      .cls-1 {
        opacity: .67;
      }

      .cls-2 {
        opacity: .38;
      }

      .cls-2, .cls-3, .cls-4, .cls-5 {
        fill: #f5f5f5;
      }

      .cls-6 {
        fill: #43bfef;
      }

      .cls-3 {
        opacity: .81;
      }

      .cls-7 {
        fill: #f2b239;
      }

      .cls-5 {
        opacity: .14;
      }
    </style>
  </defs>
  <path class="cls-6" d="M54.57,13.38c0,3.35-1.37,6.4-3.58,8.61-.58.58-1.22,1.11-1.91,1.56-.45.29-.91.56-1.4.8-1.6.78-3.4,1.22-5.3,1.22H13.89c-2.43,0-4.7-.72-6.61-1.96-.89-.58-1.71-1.27-2.42-2.06-.08-.08-.15-.17-.22-.26-.15-.17-.29-.34-.42-.52-.01-.02-.03-.04-.04-.05-.4-.53-.76-1.09-1.07-1.68-.29-.54-.53-1.11-.74-1.69-.43-1.24-.67-2.58-.67-3.96,0-3.35,1.37-6.4,3.58-8.61.52-.52,1.08-.99,1.68-1.41,1.97-1.37,4.36-2.17,6.93-2.17h28.49c6.7,0,12.19,5.48,12.19,12.19Z"/>
  <path class="cls-1" d="M42.38,1.2H13.89c-2.57,0-4.96.8-6.93,2.17-.02.01-.05.03-.07.04-.65.44-1.25.94-1.81,1.49s-1.05,1.16-1.49,1.81c-.11.16-.22.33-.32.49-1.12,1.84-1.77,4-1.77,6.31,0,.11,0,.23,0,.34,0,.06,0,.13,0,.19,0,.09,0,.18.01.27,0,.08.01.15.02.22,0,.07.01.14.02.21,0,.02,0,.03,0,.04,0,.09.02.18.03.26.04.32.09.63.16.94.01.05.02.1.03.15.02.09.04.19.07.28,0,0,0,.01,0,.01.03.12.06.23.09.34.03.12.07.23.1.35.03.08.05.16.08.24.02.06.04.12.06.17.03.08.06.16.09.24,0,.02.02.05.03.07.03.08.06.15.09.23.01.03.02.06.04.08.04.1.08.2.13.3.05.11.1.22.15.32,0,0,0,0,0,0,.05.1.1.21.16.31.16.31.34.62.53.91,0,.05.1.19.25.38.01.02.02.03.03.04,0,.01.01.02.02.03.05.07.1.13.14.2.05.07.1.14.16.21l.07.08s.02-.02.02-.03c.04-.05.08-.1.12-.15.02-.02.04-.04.06-.07.03-.03.05-.05.08-.08,0,0-.01-.01-.02-.02-.05-.06-.1-.12-.14-.19-.05-.06-.1-.13-.14-.19,0-.01-.01-.02-.02-.03-.05-.07-.09-.13-.14-.19-.05-.07-.1-.14-.14-.21-.18-.29-.36-.58-.52-.89-.04-.08-.09-.16-.13-.25,0-.02-.02-.03-.03-.05,0,0,0,0,0,0-.05-.1-.1-.21-.15-.31-.04-.09-.09-.19-.13-.29-.01-.03-.02-.05-.04-.08-.03-.07-.06-.15-.09-.22,0-.02-.02-.04-.03-.07-.03-.08-.06-.15-.09-.23-.01-.03-.02-.05-.03-.08-.01-.03-.02-.06-.03-.09-.03-.08-.05-.16-.08-.24-.04-.11-.07-.22-.1-.33-.03-.11-.06-.22-.09-.33,0,0,0,0,0-.01-.02-.09-.05-.18-.07-.27-.01-.05-.02-.1-.03-.14-.06-.3-.12-.6-.16-.91-.01-.09-.02-.17-.03-.25,0-.01,0-.03,0-.04,0-.07-.01-.13-.02-.2,0-.07-.01-.14-.02-.22,0-.09-.01-.17-.01-.26,0-.06,0-.12,0-.19,0-.11,0-.22,0-.33,0-2.23.64-4.33,1.75-6.11.1-.16.21-.32.31-.48.43-.63.93-1.21,1.47-1.75.55-.54,1.14-1.02,1.78-1.44.16-.11.32-.21.49-.31,1.82-1.09,3.95-1.72,6.22-1.72h28.1c6.61,0,12.02,5.31,12.02,11.8,0,.11,0,.23,0,.34,0,.09,0,.18-.01.27,0,.07,0,.15-.01.22,0,.04,0,.08,0,.12,0,.07-.01.14-.02.21,0,.03,0,.06-.01.09,0,.06-.01.12-.02.18,0,.07-.02.14-.03.2,0,.03,0,.06-.01.09,0,.06-.02.12-.03.18,0,.06-.02.12-.03.18-.05.24-.09.47-.15.7-.02.07-.03.14-.05.21,0,.02,0,.03-.01.04-.02.06-.03.11-.05.17,0,.03-.02.06-.03.09,0,.02-.01.04-.02.06-.02.07-.04.15-.07.22,0,.01-.01.03-.02.04h0s-.03.08-.04.13c-.03.08-.06.16-.09.25-.02.06-.04.12-.07.18-.09.23-.19.46-.29.69-.03.05-.05.11-.07.16-.02.05-.05.09-.07.14-.06.13-.13.25-.2.38-.03.06-.07.12-.1.18s-.07.12-.11.18c-.07.12-.15.24-.22.36-.04.06-.08.12-.12.18-.04.06-.08.12-.12.17-.07.1-.14.21-.22.31-.02.02-.03.05-.05.07-.07.1-.15.19-.22.29,0,0,0,0-.01.01-.09.11-.18.22-.27.32-.06.08-.13.15-.2.22h0s-.05.06-.08.09c-.05.06-.11.11-.16.17-.07.07-.14.14-.21.21,0,0-.02.02-.02.03-.02.02-.05.05-.07.07-.03.03-.06.06-.1.09-.07.06-.13.12-.2.18-.06.06-.13.11-.19.17l-.21.18c-.07.06-.14.11-.21.17-.07.06-.14.11-.21.16-.07.05-.14.1-.21.15-.15.11-.3.21-.46.32-.07.05-.14.09-.22.14-.15.1-.31.19-.46.27-.16.09-.32.17-.48.26-.11.05-.22.11-.33.16-.1.05-.2.1-.3.14-.03.01-.06.03-.08.04-.08.03-.15.06-.23.09,0,0-.01,0-.02,0-.09.04-.18.07-.27.1-.02,0-.04.02-.06.02-.1.04-.21.08-.31.11-.22.08-.44.14-.66.2-.02,0-.03.01-.05.02-.1.03-.2.05-.3.08,0,0-.01,0-.02,0-.22.06-.44.1-.66.14-.13.02-.26.05-.39.07-.11.02-.22.03-.33.04-.02,0-.04,0-.06,0-.08.01-.16.02-.24.03-.04,0-.09.01-.14.01-.09,0-.18.02-.27.02-.09,0-.17.01-.26.01-.06,0-.11,0-.17,0-.11,0-.22,0-.34,0H13.91c-.09,0-.19,0-.28,0-.02,0-.04,0-.06,0-.09,0-.18,0-.27-.01-.07,0-.13,0-.2-.01-.07,0-.13-.01-.2-.02-.07,0-.14-.01-.21-.02-.1-.01-.2-.02-.3-.03-.09-.01-.19-.03-.28-.04-.01,0-.02,0-.03,0-.09-.02-.19-.03-.28-.05-.2-.04-.41-.08-.61-.12-.09-.02-.18-.04-.27-.07-.13-.03-.26-.07-.39-.11-.07-.02-.14-.04-.21-.06-.02,0-.04-.01-.05-.02-.07-.02-.14-.04-.21-.07-.09-.03-.19-.06-.28-.1-.09-.03-.18-.07-.27-.1-.09-.03-.18-.07-.27-.11-.09-.04-.18-.07-.27-.12-.09-.04-.18-.08-.26-.12-.07-.04-.15-.07-.22-.11-.01,0-.03-.01-.04-.02-.08-.04-.17-.08-.25-.13,0,0-.02,0-.02-.01-.07-.04-.14-.07-.21-.11-.02,0-.03-.02-.05-.03-.14-.08-.28-.16-.42-.25-.05-.03-.1-.07-.16-.1-.06-.04-.12-.08-.18-.12h0c-.27-.18-.53-.37-.79-.57-.06-.05-.13-.1-.19-.15-.25-.21-.49-.42-.72-.65-.06-.06-.12-.11-.17-.17-.06-.06-.11-.12-.17-.17-.06-.06-.11-.12-.17-.18-.03-.03-.05-.05-.07-.08h-.55l.21.26s.05.05.07.08c.03.04.07.07.1.11,0,0,0,0,0,0,.03.04.05.08.07.12.09.07.17.14.25.22.03.03.06.06.09.09.12.12.24.23.36.34.12.11.25.22.37.33.06.05.13.11.19.16.26.21.52.41.8.59h0c.06.04.12.08.18.12.05.04.11.07.16.1.16.1.31.19.47.28.07.04.14.08.21.12,0,0,.02,0,.02.01.08.05.17.09.25.13.01,0,.03.02.04.02.08.04.15.08.23.11.09.04.18.09.27.13.09.04.18.08.27.12.09.04.18.08.27.11.09.04.18.07.28.11.09.03.19.07.28.1.07.03.14.05.21.07.02,0,.04.01.05.02.07.02.14.04.21.06.13.04.26.08.39.11.09.02.18.05.27.07.2.05.41.09.62.13.09.02.19.03.28.05.01,0,.02,0,.03,0,.09.01.19.03.28.04.1.01.2.03.3.04.07,0,.14.01.21.02.07,0,.14.01.2.02.07,0,.14,0,.2.01.09,0,.18,0,.28.01.02,0,.04,0,.06,0,.09,0,.19,0,.28,0h28.49c.11,0,.23,0,.34,0,.06,0,.11,0,.17,0,.09,0,.17,0,.26-.01.09,0,.18-.01.28-.02.05,0,.09,0,.14-.01.08,0,.16-.02.24-.03.02,0,.04,0,.06,0,.11-.01.22-.03.33-.05.13-.02.26-.04.39-.07.23-.04.45-.09.68-.15,0,0,.01,0,.02,0,.1-.02.2-.05.3-.08.02,0,.03-.01.05-.02.23-.06.45-.13.67-.21.11-.04.21-.07.32-.11.02,0,.04-.02.06-.02.09-.03.18-.07.27-.11,0,0,.01,0,.02,0,.11-.04.21-.09.32-.14.1-.04.21-.09.31-.14.11-.05.22-.11.33-.16.16-.08.32-.17.48-.26.16-.09.31-.19.47-.28.07-.05.15-.09.22-.14.05-.04.11-.07.16-.11.69-.46,1.33-.98,1.91-1.56,2.21-2.21,3.58-5.26,3.58-8.61,0-6.7-5.49-12.19-12.19-12.19Z"/>
  <circle class="cls-7" cx="14.8" cy="13.51" r="11.26"/>
  <path class="cls-5" d="M53.79,17.26h0s-.03.09-.04.13c-.03.09-.06.17-.09.25-.02.06-.05.13-.07.19-.09.24-.19.48-.29.71-.04.1-.09.19-.13.28,0,0,0,.02-.01.02-.06.13-.13.26-.2.39-.03.06-.07.13-.1.19-.04.06-.07.13-.11.19-.03.05-.05.09-.08.14-.05.08-.09.16-.14.23-.03.05-.07.11-.1.16,0,0,0,.02-.01.02l-.12.18c-.07.11-.15.21-.22.32-.02.02-.03.05-.05.07-.07.1-.15.2-.23.3,0,0,0,0-.01.01-.09.11-.18.22-.27.33-.07.08-.14.16-.21.24h0c-.05,0-.1,0-.16,0-.13,0-.25,0-.38,0-.37-.01-.74-.05-1.11-.06-.26,0-.54,0-.83,0-.51,0-1.02,0-1.53,0-.17,0-.34,0-.52-.02-1.16-.32-2.33-.15-3.51,0-.19,0-.38,0-.57.01h-1.78c-.62.01-1.1.01-1.68,0h-.13c-.4,0-.8,0-1.2,0-.4,0-.79,0-1.18,0-.2,0-.4,0-.6,0-.78.02-1.39.02-2.13,0-.11,0-.21,0-.33,0-.41,0-.83,0-1.25,0h-1.26c-.79,0-1.58,0-2.37,0-.23,0-.47,0-.71,0-.56,0-1.12,0-1.68,0h-3.32c-.61,0-1.25,0-1.87,0-.47,0-.92,0-1.33,0-.35,0-.7,0-1.05,0-.6,0-1.19,0-1.78-.03-.16,0-.32-.02-.48-.03-.72-.05-1.41-.12-2.11-.14-.23,0-.46-.01-.7,0-.02,0-.04,0-.05,0-.46.04-.94.04-1.36.15-.17.01-.33.02-.5.03-.49.02-.97.02-1.43.02h-5.84l-.21-.26-.28-.34-.07-.08c-.05-.07-.11-.14-.16-.21-.05-.07-.1-.13-.14-.2,0-.01-.01-.02-.02-.03-.01-.02-.02-.03-.03-.04-.04-.05-.07-.11-.11-.16-.05-.07-.1-.15-.14-.22-.19-.3-.36-.6-.53-.91-.05-.1-.11-.2-.16-.31,0,0,0,0,0,0-.05-.11-.1-.21-.15-.32-.04-.1-.09-.2-.13-.3-.01-.03-.02-.06-.04-.08-.03-.08-.06-.15-.09-.23,0-.02-.02-.05-.03-.07-.03-.08-.06-.16-.09-.24-.02-.06-.04-.11-.06-.17.01,0,.09,0,.23-.02.05,0,.11-.01.18-.02.06,0,.13-.02.2-.03,1.3-1.1,1.3-3.61,3.31-3.78.2-.03.37-.02.53.02.16.04.31.1.45.19.4.24.76.51,1.11.8.47.39.92.8,1.38,1.19.16.14.32.27.49.39.38.26.72.43,1.05.26.4-.11.74-.35,1.06-.65,1.15-1.09,1.94-2.97,3.69-2.13.16.12.31.26.44.44.1.13.2.27.29.42.09.15.18.3.27.46.06.15.13.34.22.53.1.18.22.35.39.43.39.11.69.04.94-.13.13-.08.24-.19.36-.31.14-.1.27-.24.4-.38,1.68-1.84,3.57-.42,5.09,1,.06.06.12.11.18.17.17.16.34.32.5.47q.24.18.41.35c.14-.14.26-.29.37-.44.11-.18.21-.38.32-.58.01-.03.02-.07.03-.1.33-.97.99-2.21,2.29-1.89,1.15.52,1.85,1.64,2.72,2.43.17.16.36.31.55.43.25-.02.58.15.75.15,1.17-.84.84-3.68,2.68-3.18.38.13.64.36.84.64.1.14.19.3.27.46.11.2.25.47.38.66,1.65-.89,3.04-.42,4.37.46.19.12.38.26.57.4.64.47,1.08.45,1.43.17.02-.02.04-.03.06-.05.77-.68,1.1-2.58,2.12-2.92,1.34-.5,1.67,1.34,2.6,1.99.12.14.25.28.37.43.21.59,1.05.76,1.22.59,1.34-.84,2.85-1.84,4.02-.5.11.16.2.33.28.52.08.17.15.35.21.54Z"/>
  <path class="cls-2" d="M53.17,18.84c-.05.14-.11.26-.18.38-.11.19-.23.36-.35.53-.09.13-.17.26-.25.39,0,0,0,.02-.01.02-.02.03-.04.06-.06.09l-.06.09c-.07.11-.15.21-.22.32-.02.02-.03.05-.05.07-.07.1-.15.2-.23.3,0,0,0,0-.01.01-.09.11-.18.22-.27.33-.07.08-.14.16-.21.24-.03.03-.05.06-.08.09-.12.13-.25.27-.38.4,0,0-.02.02-.03.03-.02.02-.05.05-.07.07-.03.03-.06.06-.1.1-.07.06-.13.13-.2.19-.06.06-.13.12-.19.18l-.22.19c-.07.06-.14.12-.21.17-.07.06-.14.11-.21.17-.07.05-.14.11-.21.16-.1.07-.2.15-.31.22-.05.04-.11.07-.16.11-.07.05-.15.1-.22.14-.16.1-.31.19-.47.28-.16.09-.32.18-.48.26h-.07c-.14,0-.27,0-.41,0-.16,0-.32,0-.48-.01-.01,0-.02,0-.03,0-1.16-.32-2.33-.15-3.51,0-.19,0-.38,0-.57.01h-1.78c-.66.01-1.16.01-1.81,0-.4,0-.8,0-1.2,0-.4,0-.79,0-1.18,0-.2,0-.4,0-.6,0-.89.02-1.56.02-2.46,0-.41,0-.83,0-1.25,0h-1.26c-.79,0-1.58,0-2.37,0h-.6c-.2,0-.4,0-.6,0-.23.01-.46.02-.68.03-.22,0-.44.01-.66.02-.22,0-.43,0-.65,0s-.43,0-.65,0c-.43,0-.88-.02-1.34-.04h-.54c-1.07.01-2.24.01-3.2,0-.35,0-.7,0-1.05,0-.76,0-1.52,0-2.25-.05-.72-.06-1.41-.12-2.11-.14-.23,0-.46-.01-.7,0-.48.04-.98.04-1.41.15-.17.01-.33.02-.5.03-.24.01-.48.02-.72.03-.24,0-.49.01-.73.02-.81-.07-1.64-.43-2.45-.64-.22-.06-.43-.1-.65-.12-.14-.02-.28-.03-.42-.02h0c-.27-.19-.54-.38-.8-.59-.06-.05-.13-.1-.19-.16-.13-.11-.25-.22-.37-.33-.12-.11-.24-.22-.36-.34-.03-.03-.06-.06-.09-.09-.08-.08-.16-.15-.25-.22-.02-.04-.04-.08-.07-.12,0,0,0,0,0,0-.04-.06-.08-.12-.14-.19-.06-.08-.13-.17-.2-.26-.1-.12-.2-.25-.3-.37-.02-.03-.04-.05-.07-.08-.14-.17-.27-.32-.38-.46-.15-.19-.25-.33-.25-.38-.17-.38-.27-.69-.29-.96-.02-.14-.02-.26,0-.38.11-.79.9-1.23,1.94-2.2.08-.13.16-.26.25-.36.19-.21.43-.36.76-.4,1.51-.33,2.68.5,4.04,1.2.26.15.53.3.79.46.27.16.53.33.81.52.14.15.29.29.44.42.16.13.32.24.49.35,1.3.91,2.31.41,3.31-.76,1.17-1.17,3.35-.5,5.25-.29.19.04.38.08.57.12.95.21,1.89.49,2.82.76.2-.04.39-.06.56-.09s.34-.07.51-.16c.11-.1.21-.22.32-.33.13-.1.26-.21.41-.31.72-.52,1.71-.86,2.67-.88.19,0,.38,0,.57.02.95.08,1.72.62,2.46,1.15.15.1.3.2.45.3,1.17.61,2.18.33,3.14-.18.19-.1.38-.22.57-.33.61-.48,1.49-1.12,2.31-1.29.17-.03.33-.05.49-.04.25-.02.46.01.62.08.47.66,1.04,1.1,1.64,1.33.15.06.3.1.46.14.98.18,1.65.18,2.32-.49,1.17-1,2.51,0,3.85-.17-.17.17-.33.33-.17.5s.5.33.84.31c.14.02.28.04.42.04.43.02.86-.03,1.3-.04.18,0,.35-.02.53-.03.53-.04,1.08-.08,1.59.05.15.15.3.3.43.49.01.02.03.04.04.06.08.07.15.14.23.23,0,0,.01.02.02.02Z"/>
  <path class="cls-3" d="M51.2,21.7c-.12.13-.25.27-.38.4,0,0-.02.02-.03.03-.02.02-.05.05-.07.07-.03.03-.06.06-.1.1-.07.06-.13.13-.2.19-.06.06-.13.12-.19.18l-.22.19c-.07.06-.14.12-.21.17-.07.06-.14.11-.21.17-.07.05-.14.11-.21.16-.1.07-.2.15-.31.22-.05.04-.11.07-.16.11-.07.05-.15.1-.22.14-.16.1-.31.19-.47.28-.16.09-.32.18-.48.26-.11.06-.22.11-.33.16-.1.05-.2.1-.31.14-.1.05-.21.09-.32.14,0,0-.01,0-.02,0-.09.04-.18.07-.27.11-.02,0-.04.02-.06.02-.1.04-.21.08-.32.11-.22.08-.44.15-.67.21-.02,0-.03.01-.05.02-.1.03-.2.05-.3.08,0,0-.01,0-.02,0-.22.06-.45.11-.68.15-.13.03-.26.05-.39.07-.11.02-.22.03-.33.05-.02,0-.04,0-.06,0-.08.01-.16.02-.24.03-.05,0-.09.01-.14.01-.09,0-.18.02-.28.02-.09,0-.17.01-.26.01-.06,0-.11,0-.17,0-.11,0-.23,0-.34,0H13.7c-.1,0-.19,0-.28,0-.02,0-.04,0-.06,0-.09,0-.18,0-.28-.01-.07,0-.14,0-.2-.01-.07,0-.14-.01-.2-.02-.07,0-.14-.01-.21-.02-.1-.01-.2-.02-.3-.04-.1-.01-.19-.03-.28-.04-.01,0-.02,0-.03,0-.1-.02-.19-.03-.28-.05-.21-.04-.41-.08-.62-.13-.09-.02-.18-.04-.27-.07-.13-.03-.26-.07-.39-.11-.07-.02-.14-.04-.21-.06-.02,0-.04-.01-.05-.02-.07-.02-.14-.05-.21-.07-.09-.03-.19-.07-.28-.1-.09-.04-.19-.07-.28-.11-.09-.04-.18-.07-.27-.11-.09-.04-.18-.08-.27-.12-.09-.04-.18-.08-.27-.13-.08-.04-.15-.07-.23-.11-.01,0-.03-.01-.04-.02-.08-.04-.17-.09-.25-.13,0,0-.02,0-.02-.01-.07-.04-.14-.08-.21-.12-.16-.09-.32-.19-.47-.28-.05-.03-.11-.07-.16-.1-.06-.04-.12-.08-.18-.12h0c-.27-.19-.54-.38-.8-.59-.06-.05-.13-.1-.19-.16-.13-.11-.25-.22-.37-.33-.12-.11-.24-.22-.36-.34-.03-.03-.06-.06-.09-.09-.03-.03-.06-.06-.09-.09-.06-.06-.12-.12-.17-.18-.02-.02-.04-.05-.06-.07,0,0,0,0,0,0-.03-.04-.07-.07-.1-.11-.03-.03-.05-.05-.07-.08l-.21-.26-.28-.34-.07-.08s.02-.02.03-.02c.05-.05.1-.09.15-.12.05-.04.1-.08.16-.11.04-.02.07-.04.11-.06.17-.09.35-.14.52-.16,1.39.12,3.13-.67,4.47-.34.19.05.38.12.56.21.98.8,1.82.8,2.99.8.3,0,.52.12.7.29.33.32.54.84.8,1.21.08.12.17.22.27.29.62.27,1.05.12,1.42-.17.12-.1.23-.21.34-.34.16-.24.32-.53.5-.83.52-.9,1.15-1.84,2.16-1.47.76.22,1.23,1.06,1.99,1.5.42.24.92.37,1.61.19.22-.04.44-.08.66-.13.05-.02.1-.05.14-.07,1.47-.7,3.12-.79,4.46,0,.06.04.13.08.19.12.16.11.31.22.45.35.14.21.28.4.43.57.12.12.24.22.37.31.71.34,1.42.36,2.14.22.18-.04.36-.08.53-.14.63-.42,1.22-.93,1.82-1.42.94-.76,1.92-1.46,3.15-1.67.16,0,.34.03.53.11.19.08.4.21.63.4.33.33.63.76.94,1.16.62.82,1.29,1.57,2.41,1.35.6-.12.68-.84,1.02-1.36.13-.21.31-.39.58-.48.16-.12.33-.22.51-.33,1.74-1.68,3.92-.85,5.9-.65.14.02.27.06.39.12.37.17.69.52.95,1.14,0,.02.02.03.02.05.03.08.07.15.12.21.02.03.05.06.08.09h0Z"/>
  <path class="cls-4" d="M40.36,10.05c0-.14,0-.28-.02-.39,0-.02,0-.03,0-.05,0-.02,0-.05-.01-.07,0-.02,0-.05-.02-.07,0-.03-.01-.06-.02-.09,0,0,0,0,0-.01,0-.03-.02-.06-.03-.09-.2-.52-.71-.89-1.3-.89h-.4c.02-.09.03-.18.03-.27,0-.88-.88-1.6-1.97-1.6-.89,0-1.64.48-1.88,1.13-.43-.69-1.54-.85-2.53-.33-.72.37-1.18,1-1.26,1.6h-1.43c-.77,0-1.4.63-1.4,1.4s.63,1.4,1.4,1.4h9.44c.74,0,1.34-.58,1.39-1.3.01-.12.02-.24.02-.38Z"/>
  <path class="cls-4" d="M45.64,10.03h.97c.09,0,.18,0,.28,0,.64-.14,1.61.18,2.16-.03.11-.04.2-.1.27-.2.62-1.14-.55-2.98-2.04-2.64-.13.03-.26.07-.39.13-.25.11-.48.26-.66.45-.11.05-.22.1-.34.13-.12.03-.24.04-.38.03-.08.03-.16.08-.24.13-.22.16-.4.44-.51.86-.02.08-.03.16-.03.24h0c0,.49.4.9.9.9Z"/>
  <path class="cls-4" d="M40.41,5.14c.15.05.26.05.32.04.03,0,.06.01.1.02.07,0,.13,0,.2,0,.32,0,.65,0,.97-.03.12,0,.23,0,.34-.02.04,0,.08,0,.12-.01s.07-.01.11-.02c.12.08.23-.15.34-.15.02-.03.03-.06.04-.1.12-.15.19-.33.2-.51,0-.04,0-.07,0-.11-.01-.31-.15-.53-.35-.63-.06-.04-.13-.06-.21-.08-.07,0-.15,0-.22.02-.03,0-.05.01-.08.02-.2.02-.38-.02-.58-.06-.04,0-.08-.02-.12-.02-.49.02-.94-.42-1.38-.37-.03,0-.07.01-.1.02-.3.09-.55.37-.68.7-.03.11-.03.2-.03.28.02.43.31.77.65.94.04.02.08.03.13.04.04.01.09.02.13.02.03,0,.05,0,.08.01Z"/>
  <path class="cls-4" d="M42.69,0H13.2C5.94,0,0,5.94,0,13.2v.64c0,2.63.78,5.1,2.13,7.16,0-.02,0-.04.01-.06v.07c.07.11.15.22.22.33.05.07.1.15.15.22h0s.01.02.02.03c.01.02.03.04.04.05.08.11.16.21.24.31.08.1.16.2.24.3.08.09.15.18.23.27,0,0,0,0,0,0,.08.09.15.17.23.26.07.07.13.14.2.21.17.17.34.34.52.51.07.06.13.12.2.18.07.06.14.12.21.18.07.06.13.11.2.17.07.06.15.12.22.18,2.24,1.77,5.07,2.82,8.13,2.82h29.5c2.95,0,5.68-.98,7.89-2.63.09-.07.17-.13.26-.2.07-.05.13-.11.2-.16.02-.02.04-.04.07-.05.06-.05.13-.11.19-.16.03-.02.05-.04.08-.07.06-.05.12-.11.18-.16.08-.07.16-.14.23-.22.04-.04.07-.07.11-.11.08-.08.15-.15.23-.23.08-.08.16-.17.24-.26.11-.12.22-.24.32-.36.08-.09.15-.18.23-.27,0-.01.02-.02.02-.03,0-.01.02-.02.03-.03.07-.09.14-.18.21-.27.02-.03.04-.05.06-.08.07-.1.14-.19.21-.29.01-.02.03-.04.04-.06.07-.11.15-.21.22-.32.08-.12.16-.24.24-.37,1.23-2,1.94-4.36,1.94-6.87v-.64c0-7.26-5.94-13.2-13.2-13.2ZM55.52,13.82c0,2.43-.7,4.71-1.91,6.65-.08.12-.15.24-.23.36-.07.1-.14.21-.21.31-.01.02-.03.04-.04.06-.07.1-.14.19-.21.28-.02.03-.04.05-.06.08-.07.09-.14.18-.21.26,0,.01-.02.02-.03.03,0,0-.02.02-.02.03-.07.09-.15.18-.23.27-.1.12-.21.23-.32.35-.08.09-.16.17-.24.25-.07.08-.15.15-.22.22-.04.03-.07.07-.11.1-.08.07-.15.14-.23.21-.06.05-.12.1-.17.15-.03.02-.05.04-.08.07-.06.05-.12.11-.19.16-.02.02-.04.04-.06.05-.07.05-.13.1-.2.15-.08.07-.17.13-.26.2-2.17,1.6-4.87,2.55-7.78,2.55H13.42c-3.02,0-5.81-1.02-8.02-2.73-.07-.06-.15-.11-.22-.17-.07-.05-.13-.11-.2-.16-.07-.06-.14-.12-.2-.17-.07-.06-.13-.12-.2-.18-.17-.16-.35-.32-.51-.49-.07-.07-.13-.14-.2-.21-.08-.08-.15-.16-.23-.25,0,0,0,0,0,0-.08-.09-.15-.17-.22-.26-.08-.1-.16-.19-.24-.29-.08-.1-.16-.2-.23-.3-.01-.02-.03-.03-.04-.05,0,0-.01-.02-.02-.03h0c-.05-.07-.1-.14-.15-.21-.08-.1-.15-.21-.22-.32v-.07s0,.04-.01.06c-1.33-2-2.1-4.38-2.1-6.93v-.62C.4,6.18,6.26.43,13.42.43h29.09c7.16,0,13.01,5.75,13.01,12.78v.62ZM42.38,1.2H13.89c-2.57,0-4.96.8-6.93,2.17.14-.09.28-.19.43-.27,1.84-1.12,4-1.77,6.31-1.77h28.49c6.7,0,12.19,5.48,12.19,12.19,0,.12,0,.23,0,.35,0,.09,0,.18-.01.27,0,.08,0,.15-.01.23,0,.04,0,.08,0,.13,0,.07-.01.15-.02.22,0,.03,0,.07-.01.1,0,.06-.01.12-.02.18,0,.07-.02.14-.03.21,0,.03,0,.06-.01.09,0,.06-.02.12-.03.19,0,.06-.02.12-.03.18-.05.24-.1.49-.16.73-.02.07-.03.15-.05.22,0,.02,0,.03-.01.04-.02.09-.05.18-.08.27,0,.02-.01.04-.02.06-.02.08-.05.15-.07.23,0,.02-.01.03-.02.05h0s-.03.09-.04.13c-.03.09-.06.17-.09.25-.02.06-.05.13-.07.19-.09.24-.19.48-.29.71-.04.1-.09.19-.13.28,0,0,0,.02-.01.02-.06.13-.13.26-.2.39-.03.06-.07.13-.1.19-.04.06-.07.13-.11.19-.03.05-.05.09-.08.14-.05.08-.09.16-.14.23-.03.05-.07.11-.1.16,0,0,0,.02-.01.02l-.12.18c-.07.11-.15.21-.22.32-.02.02-.03.05-.05.07-.07.1-.15.2-.23.3,0,0,0,0-.01.01-.09.11-.18.22-.27.33-.07.08-.14.16-.21.24-.03.03-.05.06-.08.09-.12.13-.25.27-.38.4,0,0-.02.02-.03.03-.02.02-.05.05-.07.07-.03.03-.06.06-.1.1-.07.06-.13.13-.2.19-.06.06-.13.12-.19.18l-.22.19c-.07.06-.14.12-.21.17-.07.06-.14.11-.21.17-.07.05-.14.11-.21.16-.1.07-.2.15-.31.22.69-.46,1.33-.98,1.91-1.56,2.21-2.21,3.58-5.26,3.58-8.61,0-6.7-5.49-12.19-12.19-12.19ZM5.5,22.51c-.12-.11-.24-.22-.36-.34.12.12.24.23.36.34ZM4.8,21.82s-.04-.05-.06-.07c.03.04.05.08.07.12.09.07.17.14.25.22-.03-.03-.06-.06-.09-.09-.06-.06-.12-.12-.17-.18ZM3.4,20.01c0,.05.1.19.25.38-.04-.05-.07-.11-.11-.16-.05-.07-.1-.15-.14-.22Z"/>
  <path class="cls-4" d="M42.51.43H13.42C6.26.43.4,6.18.4,13.21v.62c0,2.55.77,4.93,2.1,6.93,0-.02,0-.04.01-.06v.07c.07.11.14.21.22.32.05.07.1.14.15.21h0s.01.02.02.03c.01.02.03.03.04.05.08.1.15.2.23.3.08.1.16.2.24.29.07.09.15.17.22.26,0,0,0,0,0,0,.08.08.15.17.23.25.07.07.13.14.2.21.17.17.34.33.51.49.07.06.13.12.2.18.07.06.13.12.2.17.06.06.13.11.2.16.07.06.15.12.22.17,2.21,1.71,5,2.73,8.02,2.73h29.09c2.91,0,5.6-.95,7.78-2.55.09-.06.17-.13.26-.2.07-.05.13-.1.2-.15.02-.02.04-.04.06-.05.06-.05.13-.1.19-.16.03-.02.05-.04.08-.07.06-.05.12-.1.17-.15.08-.07.15-.14.23-.21.04-.03.07-.07.11-.1.08-.08.15-.15.22-.22.08-.08.16-.16.24-.25.11-.11.21-.23.32-.35.08-.09.15-.18.23-.27,0-.01.02-.02.02-.03,0-.01.02-.02.03-.03.07-.09.14-.17.21-.26.02-.02.04-.05.06-.08.07-.09.14-.19.21-.28.01-.02.03-.04.04-.06.07-.1.14-.2.21-.31.08-.12.16-.24.23-.36,1.21-1.94,1.91-4.22,1.91-6.65v-.62c0-7.03-5.86-12.78-13.01-12.78ZM50.99,21.99c-.58.58-1.22,1.11-1.91,1.56-.05.04-.11.07-.16.11-.07.05-.15.1-.22.14-.16.1-.31.19-.47.28-.16.09-.32.18-.48.26-.11.06-.22.11-.33.16-.1.05-.2.1-.31.14-.1.05-.21.09-.32.14,0,0-.01,0-.02,0-.09.04-.18.07-.27.11-.02,0-.04.02-.06.02-.1.04-.21.08-.32.11-.22.08-.44.15-.67.21-.02,0-.03.01-.05.02-.1.03-.2.05-.3.08,0,0-.01,0-.02,0-.22.06-.45.11-.68.15-.13.03-.26.05-.39.07-.11.02-.22.03-.33.05-.02,0-.04,0-.06,0-.08.01-.16.02-.24.03-.05,0-.09.01-.14.01-.09,0-.18.02-.28.02-.09,0-.17.01-.26.01-.06,0-.11,0-.17,0-.11,0-.23,0-.34,0H13.7c-.1,0-.19,0-.28,0-.02,0-.04,0-.06,0-.09,0-.18,0-.28-.01-.07,0-.14,0-.2-.01-.07,0-.14-.01-.2-.02-.07,0-.14-.01-.21-.02-.1-.01-.2-.02-.3-.04-.1-.01-.19-.03-.28-.04-.01,0-.02,0-.03,0-.1-.02-.19-.03-.28-.05-.21-.04-.41-.08-.62-.13-.09-.02-.18-.04-.27-.07-.13-.03-.26-.07-.39-.11-.07-.02-.14-.04-.21-.06-.02,0-.04-.01-.05-.02-.07-.02-.14-.05-.21-.07-.09-.03-.19-.07-.28-.1-.09-.03-.19-.07-.28-.11-.09-.04-.18-.07-.27-.11-.09-.04-.18-.08-.27-.12-.09-.04-.18-.08-.27-.13-.08-.04-.15-.07-.23-.11-.01,0-.03-.01-.04-.02-.08-.04-.17-.09-.25-.13,0,0-.02,0-.02-.01-.07-.04-.14-.08-.21-.12-.16-.09-.32-.19-.47-.28-.05-.03-.11-.07-.16-.1-.06-.04-.12-.08-.18-.12h0c-.27-.19-.54-.38-.8-.59-.07-.05-.13-.1-.19-.16-.13-.11-.25-.22-.37-.33-.12-.11-.24-.22-.36-.34-.03-.03-.06-.06-.09-.09-.08-.08-.16-.15-.25-.22-.02-.04-.04-.08-.07-.12,0,0,0,0,0,0-.04-.04-.07-.07-.1-.11-.03-.03-.05-.05-.07-.08l-.21-.26-.28-.34-.07-.08c-.06-.07-.11-.14-.16-.21-.05-.07-.1-.13-.14-.2,0-.01-.01-.02-.02-.03-.01-.02-.02-.03-.03-.04-.15-.19-.25-.33-.25-.38-.19-.3-.36-.6-.53-.91-.05-.1-.11-.2-.16-.31,0,0,0,0,0,0-.05-.11-.1-.21-.15-.32-.04-.1-.09-.2-.13-.3-.01-.03-.02-.06-.04-.08-.03-.08-.06-.15-.09-.23,0-.02-.02-.05-.03-.07-.03-.08-.06-.16-.09-.24-.02-.06-.04-.11-.06-.17-.03-.08-.05-.16-.08-.24-.04-.11-.07-.23-.1-.35-.03-.11-.06-.23-.09-.34,0,0,0,0,0-.01-.02-.09-.05-.18-.07-.28-.01-.05-.02-.1-.03-.15-.07-.31-.12-.62-.16-.94-.01-.09-.02-.17-.03-.26,0-.01,0-.03,0-.04,0-.07-.01-.14-.02-.21,0-.08-.01-.15-.02-.22,0-.09-.01-.18-.01-.27,0-.06,0-.13,0-.19,0-.11,0-.23,0-.34,0-2.31.65-4.47,1.77-6.31.1-.17.21-.33.32-.49.44-.65.94-1.25,1.49-1.81s1.16-1.05,1.81-1.49c.02-.02.05-.03.07-.04,1.97-1.37,4.36-2.17,6.93-2.17h28.49c6.7,0,12.19,5.48,12.19,12.19,0,3.35-1.37,6.4-3.58,8.61Z"/>
</svg>