<?xml version="1.0" encoding="UTF-8"?>
<svg id="Layer_1" data-name="Layer 1" xmlns="http://www.w3.org/2000/svg" xmlns:xlink="http://www.w3.org/1999/xlink" viewBox="0 0 775 385.71">
  <defs>
    <style>
      .cls-1 {
        fill: url(#radial-gradient);
      }

      .cls-2 {
        fill: #f5f5f5;
      }
    </style>
    <radialGradient id="radial-gradient" cx="380.18" cy="196.45" fx="380.18" fy="196.45" r="413.12" gradientTransform="translate(-2.2 80.61) rotate(.49) scale(1.03 .55) skewX(.04)" gradientUnits="userSpaceOnUse">
      <stop offset="0" stop-color="#181818"/>
      <stop offset=".51" stop-color="#191919"/>
      <stop offset=".7" stop-color="#202020"/>
      <stop offset=".83" stop-color="#2b2c2c"/>
      <stop offset=".94" stop-color="#3b3c3d"/>
      <stop offset="1" stop-color="#484a4b"/>
    </radialGradient>
  </defs>
  <rect class="cls-1" x="0" y="0" width="775" height="385.71" rx="192.86" ry="192.86"/>
  <g>
    <path class="cls-2" d="M179.43,158.01c-17.83,0-32.29,15.6-32.29,34.85s14.45,34.85,32.29,34.85,32.29-15.6,32.29-34.85-14.45-34.85-32.29-34.85ZM179.43,218.23c-12.98,0-23.51-11.36-23.51-25.38s10.53-25.38,23.51-25.38,23.51,11.36,23.51,25.38-10.53,25.38-23.51,25.38Z"/>
    <rect class="cls-2" x="121.44" y="187.89" width="19.43" height="9.92" rx="4.78" ry="4.78"/>
    <path class="cls-2" d="M152.17,229.3l-7.24,7.82c-1.79,1.93-4.71,1.93-6.5,0h0c-1.79-1.93-1.79-5.09,0-7.02l7.24-7.82c1.79-1.93,4.71-1.93,6.5,0h0c1.79,1.93,1.79,5.09,0,7.02Z"/>
    <rect class="cls-2" x="168.94" y="240.36" width="20.98" height="9.19" rx="4.6" ry="4.6" transform="translate(-65.53 424.39) rotate(-90)"/>
    <path class="cls-2" d="M213.19,222.28l7.24,7.82c1.79,1.93,1.79,5.09,0,7.02h0c-1.79,1.93-4.71,1.93-6.5,0l-7.24-7.82c-1.79-1.93-1.79-5.09,0-7.02h0c1.79-1.93,4.71-1.93,6.5,0Z"/>
    <rect class="cls-2" x="217.98" y="187.89" width="19.43" height="9.92" rx="4.78" ry="4.78" transform="translate(455.4 385.71) rotate(-180)"/>
    <path class="cls-2" d="M206.69,156.41l7.24-7.82c1.79-1.93,4.71-1.93,6.5,0h0c1.79,1.93,1.79,5.09,0,7.02l-7.24,7.82c-1.79,1.93-4.71,1.93-6.5,0h0c-1.79-1.93-1.79-5.09,0-7.02Z"/>
    <rect class="cls-2" x="168.94" y="136.15" width="20.98" height="9.19" rx="4.6" ry="4.6" transform="translate(320.18 -38.68) rotate(90)"/>
    <path class="cls-2" d="M145.66,163.43l-7.24-7.82c-1.79-1.93-1.79-5.09,0-7.02h0c1.79-1.93,4.71-1.93,6.5,0l7.24,7.82c1.79,1.93,1.79,5.09,0,7.02h0c-1.79,1.93-4.71,1.93-6.5,0Z"/>
  </g>
  <path class="cls-2" d="M585.34,134.05s-48.69,11.5-41.17,70.6c0,0,4.6,45.79,52.03,46.92,0,0,51.41,4.51,56.42-52.11,0,0-70.21,24.81-67.29-65.41ZM598.21,244.13c-40.33-1.8-45.55-43-45.55-43-4.18-38.26,26.12-55.8,26.12-55.8.21,78.04,64.99,65.86,64.99,65.86-10.24,34.06-45.55,32.93-45.55,32.93Z"/>
</svg>