<svg width="18" height="18" viewBox="0 0 18 18" fill="none" xmlns="http://www.w3.org/2000/svg">
<path d="M8.99994 12.247C7.20744 12.247 5.75244 10.792 5.75244 8.99945C5.75244 7.20695 7.20744 5.75195 8.99994 5.75195C10.7924 5.75195 12.2474 7.20695 12.2474 8.99945C12.2474 10.792 10.7924 12.247 8.99994 12.247ZM8.99994 6.87695C7.82994 6.87695 6.87744 7.82945 6.87744 8.99945C6.87744 10.1695 7.82994 11.122 8.99994 11.122C10.1699 11.122 11.1224 10.1695 11.1224 8.99945C11.1224 7.82945 10.1699 6.87695 8.99994 6.87695Z" fill="#868686"/>
<path d="M9.00006 15.7644C6.18006 15.7644 3.51756 14.1144 1.68756 11.2494C0.892559 10.0119 0.892559 7.99437 1.68756 6.74937C3.52506 3.88438 6.18756 2.23438 9.00006 2.23438C11.8126 2.23438 14.4751 3.88438 16.3051 6.74937C17.1001 7.98688 17.1001 10.0044 16.3051 11.2494C14.4751 14.1144 11.8126 15.7644 9.00006 15.7644ZM9.00006 3.35938C6.57756 3.35938 4.26006 4.81438 2.64006 7.35688C2.07756 8.23438 2.07756 9.76437 2.64006 10.6419C4.26006 13.1844 6.57756 14.6394 9.00006 14.6394C11.4226 14.6394 13.7401 13.1844 15.3601 10.6419C15.9226 9.76437 15.9226 8.23438 15.3601 7.35688C13.7401 4.81438 11.4226 3.35938 9.00006 3.35938Z" fill="#868686"/>
</svg>
