<svg width="60" height="59" viewBox="0 0 60 59" fill="none" xmlns="http://www.w3.org/2000/svg">
<path d="M43.0814 27.1455C42.6342 23.6589 40.6568 20.5137 37.5843 18.4019C34.5117 16.29 30.5957 15.3844 26.6976 15.8844C22.7996 16.3844 19.2388 18.2489 16.7987 21.0678C14.3586 23.8868 13.239 27.4292 13.6862 30.9158L23.3971 29.6703C23.2453 28.4873 23.6252 27.2854 24.4531 26.329C25.281 25.3726 26.4891 24.74 27.8117 24.5703C29.1342 24.4007 30.4629 24.7079 31.5054 25.4245C32.5478 26.141 33.2187 27.2081 33.3705 28.3911L43.0814 27.1455Z" fill="#194BF0"/>
<path d="M43.2854 30.026C43.7286 33.5131 42.6048 37.0542 40.1614 39.8703C37.718 42.6864 34.1551 44.5468 30.2564 45.0422C26.3578 45.5376 22.4428 44.6275 19.3727 42.512C16.3027 40.3966 14.329 37.2491 13.8858 33.7619L23.5982 32.5277C23.7485 33.7109 24.4182 34.7788 25.4598 35.4965C26.5015 36.2143 27.8298 36.523 29.1525 36.355C30.4753 36.1869 31.6841 35.5557 32.5131 34.6002C33.3421 33.6448 33.7234 32.4433 33.5731 31.2602L43.2854 30.026Z" fill="#FDB713"/>
<circle cx="28.5" cy="30.5" r="3.5" fill="#194BF0"/>
<circle cx="29" cy="30" r="25" stroke="#194BF0" stroke-width="8"/>
<path d="M57.791 20.6623C59.8268 28.4431 59.7092 32.8099 57.7667 40.5862L48.0223 37.0583C48.5931 32.0506 48.5539 29.3697 48.0373 24.7524L57.791 20.6623Z" fill="#FDB713"/>
<path d="M2.90884 13.3182C7.83259 6.95884 11.3645 4.38828 18.7115 1.18409L21.86 11.0576C17.5437 13.6599 15.4432 15.3264 12.0995 18.5522L2.90884 13.3182Z" fill="#FDB713"/>
</svg>
