<svg width="24" height="24" viewBox="0 0 24 24" fill="none" xmlns="http://www.w3.org/2000/svg">
<path fill-rule="evenodd" clip-rule="evenodd" d="M1.25 11.8926C1.25 5.95552 6.06294 1.14258 12 1.14258C17.9371 1.14258 22.75 5.95552 22.75 11.8926C22.75 17.8296 17.9371 22.6426 12 22.6426C6.06294 22.6426 1.25 17.8296 1.25 11.8926ZM15.5303 8.47054C15.8232 8.76343 15.8232 9.23831 15.5303 9.5312L13.0607 12.0009L15.5303 14.4705C15.8232 14.7634 15.8232 15.2383 15.5303 15.5312C15.2374 15.8241 14.7626 15.8241 14.4697 15.5312L12 13.0615L9.53033 15.5312C9.23744 15.8241 8.76256 15.8241 8.46967 15.5312C8.17678 15.2383 8.17678 14.7634 8.46967 14.4705L10.9393 12.0009L8.46967 9.5312C8.17678 9.23831 8.17678 8.76343 8.46967 8.47054C8.76256 8.17765 9.23744 8.17765 9.53033 8.47054L12 10.9402L14.4697 8.47054C14.7626 8.17765 15.2374 8.17765 15.5303 8.47054Z" fill="#AEAEAE"/>
</svg>
