<svg width="12" height="11" viewBox="0 0 12 11" fill="none" xmlns="http://www.w3.org/2000/svg">
<path fill-rule="evenodd" clip-rule="evenodd" d="M0.146447 5.14645C-0.0488157 5.34171 -0.0488157 5.65829 0.146447 5.85355L5.14645 10.8536C5.34171 11.0488 5.65829 11.0488 5.85355 10.8536C6.04882 10.6583 6.04882 10.3417 5.85355 10.1464L0.853553 5.14645C0.658291 4.95118 0.341709 4.95118 0.146447 5.14645Z" fill="#9A9A9A"/>
<path fill-rule="evenodd" clip-rule="evenodd" d="M0.479455 0.146447C0.284193 0.341709 0.284193 0.658291 0.479455 0.853553L10.4795 10.8536C10.6747 11.0488 10.9913 11.0488 11.1866 10.8536C11.3818 10.6583 11.3818 10.3417 11.1866 10.1464L1.18656 0.146447C0.991299 -0.0488155 0.674717 -0.0488155 0.479455 0.146447Z" fill="#9A9A9A"/>
</svg>
